<?xml version="1.0" standalone="no"?>
<!DOCTYPE svg PUBLIC "-//W3C//DTD SVG 20010904//EN"
 "http://www.w3.org/TR/2001/REC-SVG-20010904/DTD/svg10.dtd">
<svg version="1.0" xmlns="http://www.w3.org/2000/svg"
 width="2008.000000pt" height="2008.000000pt" viewBox="0 0 2008.000000 2008.000000"
 preserveAspectRatio="xMidYMid meet">
<metadata>
Created by potrace 1.14, written by Peter Selinger 2001-2017
</metadata>
<g transform="translate(0.000000,2008.000000) scale(0.100000,-0.100000)"
fill="#000000" stroke="none">
<path d="M2620 13711 c0 -3 -17 -6 -37 -7 -21 0 -56 -4 -78 -8 -22 -5 -45 -9
-52 -10 -7 -1 -16 -5 -19 -9 -4 -4 -18 -7 -31 -7 -12 0 -23 -4 -23 -8 0 -4 12
-7 28 -6 15 1 27 3 27 4 0 12 275 16 340 5 22 -4 48 -7 58 -7 9 1 17 -3 17 -8
0 -5 7 -7 15 -4 8 4 21 2 28 -3 6 -5 32 -16 57 -23 25 -8 47 -14 50 -15 3 -1
23 -10 45 -20 22 -10 43 -18 48 -17 4 1 7 -2 7 -7 0 -5 18 -18 39 -29 48 -25
79 -50 146 -118 61 -61 85 -91 85 -104 0 -6 4 -10 8 -10 8 0 36 -51 32 -59 -1
-2 2 -7 7 -10 4 -3 16 -20 25 -38 16 -32 16 -32 -10 -41 -20 -7 -36 -5 -62 9
-19 10 -55 28 -80 38 -25 11 -79 53 -123 95 -43 42 -80 76 -83 76 -3 0 -20 11
-38 25 -18 14 -38 25 -44 25 -7 0 -12 4 -12 10 0 5 -11 12 -25 16 -14 3 -25
10 -25 15 0 5 -6 9 -13 9 -7 0 -30 9 -52 20 -22 11 -47 20 -57 20 -9 0 -20 5
-23 11 -4 6 -13 8 -21 5 -8 -3 -14 -1 -14 4 0 5 -8 9 -17 9 -10 0 -38 5 -63
10 -54 13 -187 25 -178 16 3 -4 21 -9 40 -11 18 -3 56 -13 83 -22 28 -9 52
-17 55 -17 3 -1 19 -8 35 -15 17 -7 33 -14 37 -14 3 -1 10 -4 14 -8 4 -5 14
-8 21 -8 8 0 21 -7 30 -15 8 -8 19 -13 24 -10 5 4 9 2 9 -3 0 -5 8 -12 18 -16
22 -7 55 -28 64 -41 4 -5 8 -6 8 -2 0 5 6 2 14 -5 7 -7 24 -20 36 -28 64 -44
100 -73 100 -82 0 -5 -9 -7 -19 -3 -11 3 -44 7 -74 9 -31 2 -60 6 -65 10 -5 3
-12 2 -16 -2 -4 -3 -24 -7 -44 -8 -58 -3 -158 -13 -184 -19 -13 -2 -36 -7 -53
-10 -16 -4 -34 -7 -40 -9 -5 -1 -26 -6 -45 -10 -19 -5 -41 -13 -47 -18 -7 -6
-13 -7 -13 -3 0 4 -7 1 -17 -6 -9 -8 -19 -13 -22 -13 -11 2 -35 -7 -97 -37
-34 -16 -64 -29 -67 -29 -4 0 -16 -8 -27 -17 -11 -10 -24 -18 -28 -18 -10 -1
-86 -50 -103 -68 -8 -7 -19 -16 -25 -18 -33 -12 -246 -215 -324 -308 -25 -29
-54 -64 -65 -77 -11 -12 -29 -35 -40 -50 -11 -15 -37 -49 -57 -76 -21 -26 -38
-50 -38 -53 0 -6 -11 -21 -40 -54 -8 -9 -21 -29 -29 -44 -8 -15 -18 -27 -23
-27 -4 0 -8 -7 -8 -15 0 -9 -7 -18 -15 -21 -8 -4 -12 -10 -9 -15 3 -5 0 -9 -5
-9 -6 0 -11 -7 -11 -15 0 -9 -7 -18 -15 -21 -8 -4 -15 -10 -15 -14 0 -11 -142
-224 -152 -228 -5 -2 -8 -9 -8 -16 0 -7 -9 -21 -20 -31 -11 -10 -18 -20 -16
-22 13 -13 -126 -111 -166 -117 -7 -1 -17 -4 -23 -7 -16 -9 -126 -3 -179 10
-57 14 -150 58 -203 98 -49 35 -164 151 -181 182 -8 13 -22 39 -33 58 -10 18
-19 37 -19 41 0 8 -80 161 -110 211 -20 33 -40 60 -67 88 -12 13 -19 23 -16
23 3 0 -17 23 -45 50 -28 28 -54 50 -56 50 -3 0 -20 15 -39 33 -27 28 -35 31
-45 20 -7 -7 -9 -13 -5 -13 8 0 33 -63 35 -87 1 -7 5 -13 10 -13 5 0 7 -4 4
-9 -4 -5 -2 -21 4 -35 24 -64 46 -264 31 -291 -5 -10 -10 -26 -15 -55 -2 -8
-9 -35 -16 -60 -7 -25 -14 -54 -16 -65 -1 -11 -3 -20 -4 -20 -1 0 -3 -7 -5
-15 -2 -8 -7 -26 -10 -40 -3 -14 -8 -38 -10 -55 -2 -16 -4 -30 -5 -30 -2 0 -9
-35 -17 -90 -12 -79 -5 -575 8 -575 3 0 6 -15 7 -32 1 -38 8 -73 18 -90 4 -7
3 -8 -4 -4 -8 5 -9 -1 -2 -21 5 -15 11 -44 14 -63 3 -19 9 -52 14 -72 6 -21 8
-38 5 -38 -3 0 -1 -6 4 -12 6 -7 11 -20 11 -28 0 -8 3 -22 5 -30 2 -8 7 -32
12 -52 4 -21 11 -38 17 -38 5 0 6 -5 3 -10 -4 -6 0 -29 8 -53 8 -23 20 -60 26
-82 7 -22 16 -49 21 -60 29 -72 50 -129 50 -140 0 -7 7 -18 15 -25 9 -7 14
-19 11 -26 -3 -7 -2 -14 2 -16 9 -4 93 -175 91 -184 0 -4 6 -11 15 -16 9 -5
14 -13 11 -19 -4 -5 -1 -9 4 -9 6 0 11 -5 11 -10 0 -6 12 -29 27 -53 14 -23
25 -43 24 -45 -1 -1 4 -9 11 -17 27 -30 38 -44 38 -50 0 -6 40 -61 93 -129 12
-16 23 -32 25 -37 3 -8 79 -95 124 -141 14 -15 25 -28 22 -28 -10 0 161 -160
248 -233 18 -15 44 -36 57 -47 13 -11 27 -20 30 -20 3 0 20 -12 36 -26 17 -14
82 -60 145 -101 63 -42 131 -87 151 -99 19 -13 40 -24 47 -24 6 0 15 -6 19
-12 4 -7 22 -20 38 -29 43 -23 79 -43 85 -49 10 -10 65 -41 83 -47 9 -3 17
-10 17 -15 0 -5 4 -7 9 -3 5 3 12 1 15 -4 4 -5 34 -25 69 -45 99 -56 95 -52
64 -77 -16 -11 -26 -24 -23 -27 3 -3 1 -10 -4 -17 -9 -11 32 -86 67 -123 7 -7
20 -26 30 -42 9 -17 21 -30 25 -30 4 0 8 -5 8 -11 0 -6 11 -24 25 -41 29 -34
32 -48 10 -48 -9 0 -29 -21 -45 -46 -27 -43 -29 -53 -26 -125 2 -56 7 -84 19
-97 10 -10 17 -23 17 -28 0 -11 90 -98 90 -87 0 4 4 2 9 -6 12 -18 121 -22
139 -4 8 7 18 11 23 8 5 -4 9 -2 9 3 0 5 9 19 20 32 11 13 20 18 20 11 0 -7
10 -23 23 -36 36 -39 47 -54 47 -64 0 -10 25 -22 59 -26 23 -3 32 1 72 38 10
9 19 14 19 10 0 -3 10 3 23 14 30 28 65 37 82 23 8 -7 15 -10 15 -6 0 4 14 0
30 -9 17 -9 30 -13 30 -9 0 4 6 2 13 -4 6 -5 26 -12 42 -15 17 -3 50 -12 75
-20 25 -8 52 -15 60 -16 21 -1 65 -9 65 -11 0 -7 232 -6 240 1 6 4 17 4 24 0
7 -5 29 -5 50 0 20 4 54 9 76 10 22 2 47 6 55 10 13 6 115 38 145 45 68 17 86
12 81 -19 -3 -12 -5 -23 -7 -24 -1 -2 -3 -7 -4 -13 -1 -5 -3 -11 -5 -12 -1 -2
-3 -12 -5 -23 -2 -11 -9 -49 -15 -85 -16 -87 -16 -425 0 -425 1 0 3 -7 5 -15
9 -46 39 -140 44 -140 3 0 7 -19 9 -43 2 -39 -2 -48 -40 -88 -52 -56 -112
-101 -121 -92 -4 3 -7 1 -7 -5 0 -7 -7 -12 -15 -12 -8 0 -15 -4 -15 -9 0 -5
-13 -12 -30 -16 -16 -4 -30 -11 -30 -16 0 -6 -4 -8 -9 -4 -5 3 -15 0 -23 -7
-7 -7 -17 -13 -23 -13 -17 0 -105 -29 -105 -35 0 -3 -10 -6 -22 -7 -35 -2 -91
-12 -108 -19 -24 -9 -161 -18 -232 -15 -42 1 -46 8 -20 37 9 11 25 29 35 41
57 67 69 210 23 280 -27 41 -98 82 -146 85 -37 2 -100 -13 -100 -24 0 -5 -4
-7 -8 -4 -5 3 -18 -3 -29 -14 -12 -10 -23 -17 -25 -14 -3 2 -11 -7 -18 -21 -7
-14 -17 -25 -22 -25 -4 0 -8 -9 -8 -20 0 -11 -4 -20 -9 -20 -15 0 -29 -86 -21
-127 12 -67 57 -127 125 -165 35 -20 44 -38 17 -38 -10 0 -22 -3 -26 -7 -3 -4
-12 -8 -19 -10 -7 -1 -34 -9 -62 -16 -80 -23 -142 -29 -265 -29 -119 1 -198 9
-215 22 -5 4 -18 6 -27 5 -10 -2 -18 1 -18 5 0 5 -13 11 -29 15 -15 3 -38 17
-49 30 l-20 23 30 41 c16 23 27 41 23 41 -4 0 -3 6 2 13 9 11 17 34 31 92 7
30 5 185 -3 220 -4 17 -8 35 -9 40 -1 6 -5 15 -9 22 -4 6 -8 23 -9 37 -1 14
-6 26 -10 26 -7 0 -19 31 -15 40 1 3 -8 19 -21 37 -12 17 -22 34 -22 37 0 12
-85 129 -97 133 -7 3 -13 10 -13 15 0 6 -19 27 -42 47 -23 20 -53 46 -66 59
-14 12 -31 22 -38 22 -8 0 -14 5 -14 11 0 5 -4 7 -10 4 -5 -3 -10 -2 -10 3 0
10 -57 36 -112 52 -23 7 -26 5 -26 -13 1 -12 6 -28 12 -36 9 -12 8 -13 -2 -7
-11 7 -12 4 -3 -12 6 -11 13 -38 15 -60 3 -21 9 -50 14 -63 11 -31 8 -139 -4
-147 -13 -9 -67 -102 -59 -102 3 0 1 -9 -6 -21 -20 -37 -27 -136 -15 -193 23
-100 130 -212 266 -278 66 -32 126 -57 153 -63 15 -4 27 -12 27 -18 0 -14 60
-67 76 -67 7 0 14 -4 16 -9 2 -6 14 -12 28 -14 14 -2 33 -8 44 -12 10 -4 31
-8 47 -9 16 -1 29 -3 29 -6 0 -7 63 -12 165 -12 75 0 180 7 180 12 0 1 14 3
30 6 51 7 60 9 72 17 7 5 17 5 23 2 6 -3 10 -1 10 6 0 7 3 9 7 6 3 -4 17 0 30
8 13 9 23 13 23 10 0 -3 17 3 38 14 24 12 53 18 82 16 25 -1 45 -4 45 -5 0 -2
42 -4 93 -5 50 -1 92 1 92 4 0 3 17 6 38 7 62 1 155 16 184 28 9 4 21 5 27 2
5 -4 12 -2 15 3 3 5 26 12 51 15 25 4 45 11 45 15 0 4 10 7 23 6 12 -1 27 2
34 7 7 5 17 7 23 3 5 -3 10 -2 10 3 0 5 24 17 53 27 28 9 68 26 87 37 85 50
102 58 111 52 6 -3 8 -12 5 -19 -3 -8 2 -19 10 -26 8 -6 12 -14 10 -17 -3 -2
0 -14 6 -26 7 -11 13 -23 13 -26 0 -3 15 -40 33 -83 19 -44 31 -82 27 -85 -4
-4 -27 -7 -53 -8 -26 0 -54 -3 -62 -6 -8 -3 -36 -13 -62 -22 -40 -15 -147 -96
-125 -96 4 0 3 -9 -3 -20 -17 -31 -15 -86 3 -105 15 -15 53 -16 364 -16 191 1
349 4 352 6 5 6 8 18 16 84 3 25 8 55 12 69 3 14 6 95 7 181 l1 156 220 0
c121 0 226 -4 233 -9 7 -5 12 -4 12 1 0 17 46 2 47 -15 1 -9 4 -30 7 -47 7
-39 18 -125 19 -147 1 -10 4 -18 7 -18 4 0 6 -10 5 -22 -1 -13 0 -27 4 -33 3
-5 6 -17 8 -25 4 -27 15 -115 16 -127 0 -7 4 -13 9 -13 5 0 6 -5 2 -12 -5 -7
-3 -8 6 -3 20 13 70 14 70 1 0 -7 3 -7 8 -1 9 12 122 13 122 1 0 -5 6 -4 13 1
6 5 30 8 52 6 53 -4 56 -4 85 0 14 2 32 0 40 -4 8 -3 24 -3 35 1 11 4 30 4 43
-1 14 -6 22 -5 22 2 0 8 5 7 15 -1 8 -7 15 -8 15 -3 0 11 101 10 118 -1 6 -3
13 -2 16 3 4 5 17 8 30 5 20 -3 25 1 31 24 13 60 2 100 -37 144 -21 24 -41 43
-45 43 -5 1 -18 6 -30 13 -13 7 -23 10 -23 6 0 -3 -6 -1 -14 5 -8 7 -25 14
-37 17 -55 12 -75 16 -90 17 -9 0 -15 6 -14 12 1 5 6 25 10 43 4 17 10 32 14
32 4 0 8 10 8 22 1 13 7 24 13 26 5 2 8 7 5 12 -3 4 2 21 10 36 8 16 15 36 15
45 0 8 4 19 9 25 16 17 53 148 55 192 1 12 3 22 6 22 3 0 6 16 7 36 1 20 7 42
13 49 7 8 7 15 1 19 -6 4 -6 18 0 39 10 33 12 234 3 342 -15 198 -30 339 -41
390 -11 52 -11 55 0 62 17 10 47 11 53 2 2 -5 15 -4 28 1 13 5 27 6 30 3 7 -7
239 -15 446 -16 141 0 231 6 290 21 20 5 43 8 53 6 9 -1 17 1 17 6 0 5 8 7 18
6 9 -2 31 1 47 6 17 5 39 11 50 12 11 2 38 7 60 12 53 11 55 11 58 14 2 2 24
7 62 15 41 8 110 15 97 9 -6 -3 -10 -10 -6 -15 3 -5 0 -9 -6 -9 -6 0 -9 -4 -5
-9 3 -5 0 -13 -6 -16 -5 -4 -8 -13 -5 -21 3 -7 1 -16 -3 -18 -10 -7 -9 -56 2
-73 5 -7 6 -13 2 -13 -9 0 22 -52 47 -80 46 -50 147 -66 211 -34 46 24 75 59
136 168 30 53 60 96 66 96 35 0 133 130 127 167 -2 6 2 14 8 18 5 3 10 23 10
43 0 20 10 56 22 80 19 34 31 45 63 53 41 11 120 46 143 64 7 6 27 25 45 44
18 19 37 39 44 46 7 7 9 15 6 19 -4 3 -2 6 4 6 18 0 48 85 59 164 3 22 7 44
10 48 3 4 1 8 -3 8 -5 0 -8 15 -8 33 2 58 -45 170 -87 208 -10 9 -18 22 -18
29 0 7 -3 11 -6 8 -3 -3 -16 4 -29 16 -45 42 -157 88 -245 101 -25 4 -48 9
-52 11 -14 9 -148 42 -148 37 0 -3 -7 0 -15 7 -8 7 -15 10 -15 7 0 -3 -21 0
-47 8 -27 8 -59 16 -73 19 -14 3 -61 15 -105 26 -44 12 -89 23 -100 25 -70 15
-115 29 -115 36 0 4 16 25 36 46 20 21 57 62 83 92 25 29 56 65 68 78 12 14
25 34 28 44 4 11 11 19 17 19 6 0 8 9 5 20 -3 10 -1 20 5 22 5 2 10 10 12 18
1 8 8 35 15 60 7 25 15 52 16 60 2 8 11 43 20 78 9 34 13 67 10 72 -3 6 -2 10
3 10 4 0 9 12 10 28 1 31 9 97 12 97 6 0 4 108 -3 112 -4 3 -3 11 3 18 8 9 8
15 0 20 -5 3 -10 18 -9 33 2 48 -40 136 -83 174 -20 17 -20 17 -3 163 8 69 16
228 15 300 0 62 0 76 0 98 1 6 -2 44 -5 82 -3 39 -7 93 -9 120 -2 28 -6 57 -9
65 -3 8 -8 35 -11 60 -6 53 -30 146 -50 194 -8 19 -12 37 -8 40 3 3 0 6 -6 6
-6 0 -13 13 -17 30 -4 16 -11 32 -16 35 -4 3 -16 21 -25 40 -9 19 -20 35 -25
35 -5 0 -9 7 -9 15 0 8 -5 15 -10 15 -6 0 -16 11 -22 25 -6 14 -15 25 -19 25
-4 0 -26 18 -48 40 -22 22 -43 40 -46 40 -3 0 -32 18 -64 40 -32 21 -61 36
-65 33 -3 -4 -6 -2 -6 4 0 6 -12 14 -26 17 -35 9 -55 31 -48 50 3 9 9 16 13
16 10 0 71 124 71 144 0 8 4 17 10 21 5 3 7 12 3 20 -3 8 -1 15 4 15 20 0 23
253 3 285 -3 6 -7 24 -9 40 -2 17 -7 32 -12 33 -5 2 -9 14 -9 26 0 12 -5 27
-11 33 -6 6 -12 17 -14 24 -9 38 -18 59 -26 59 -5 0 -9 6 -9 14 0 8 -20 45
-45 82 -25 36 -45 69 -45 71 0 2 -6 10 -12 18 -7 7 -31 34 -53 61 -49 58 -198
207 -238 237 -16 12 -37 29 -46 37 -9 9 -39 31 -66 50 -28 19 -51 38 -53 43
-2 4 -10 7 -18 7 -8 0 -14 5 -14 10 0 6 -7 10 -15 10 -8 0 -15 5 -15 10 0 6
-7 10 -15 10 -7 0 -18 8 -24 17 -5 10 -13 15 -17 11 -4 -5 -13 -3 -21 3 -9 8
-13 8 -13 0 0 -6 11 -13 24 -17 13 -3 33 -17 45 -30 11 -13 25 -24 30 -24 10
0 74 -54 127 -107 18 -17 35 -29 38 -26 3 4 6 -2 6 -12 0 -10 3 -16 6 -12 4 3
22 -11 41 -31 67 -71 118 -129 143 -161 14 -18 34 -43 45 -55 11 -11 26 -33
34 -48 8 -15 22 -36 31 -46 32 -35 133 -257 145 -320 2 -9 4 -17 5 -17 1 0 3
-11 6 -25 2 -14 7 -38 9 -55 5 -27 9 -143 5 -155 -1 -3 -3 -21 -6 -40 -5 -40
-12 -75 -14 -75 -1 0 -3 -8 -5 -18 -2 -9 -16 -43 -32 -76 -21 -43 -33 -57 -47
-55 -11 1 -22 8 -26 13 -7 12 -4 147 5 201 9 57 11 172 2 177 -4 2 -5 8 -3 12
11 17 -49 171 -66 171 -4 0 -8 7 -8 15 0 7 -8 19 -17 24 -10 6 -14 11 -9 11 5
0 -3 11 -18 25 -14 13 -26 29 -26 35 0 5 -3 10 -7 10 -5 0 -33 23 -63 50 -68
61 -69 62 -103 84 -39 26 -33 11 13 -33 22 -21 40 -42 40 -47 0 -5 9 -15 20
-22 11 -7 20 -19 20 -27 0 -8 4 -15 8 -15 5 0 17 -16 28 -35 10 -19 22 -35 26
-35 5 0 7 -3 6 -7 -1 -5 12 -36 30 -69 17 -34 28 -64 25 -68 -10 -10 -25 -7
-18 3 3 5 -2 16 -10 24 -8 9 -15 20 -15 26 0 6 -4 11 -8 11 -5 0 -15 11 -22
25 -7 13 -20 27 -29 30 -9 3 -27 21 -41 39 -14 19 -28 32 -32 30 -4 -2 -13 4
-20 14 -31 42 -256 171 -370 213 -21 7 -38 16 -38 19 0 4 -6 7 -12 8 -7 0 -51
15 -98 32 -47 17 -89 32 -95 34 -5 1 -30 8 -55 15 -25 7 -52 15 -60 18 -8 4
-18 7 -22 8 -5 2 -9 3 -10 5 -2 1 -12 3 -23 5 -11 2 -51 10 -90 19 -96 23
-117 27 -137 29 -10 1 -18 5 -18 10 0 4 -4 6 -9 3 -5 -3 -33 -1 -62 5 -30 6
-74 13 -99 15 -25 3 -58 7 -75 10 -140 23 -602 24 -683 0 -9 -3 -34 -7 -56
-11 -21 -3 -41 -7 -45 -10 -4 -2 -19 -6 -33 -9 -14 -2 -54 -16 -89 -31 -35
-14 -68 -27 -74 -29 -5 -1 -26 -9 -45 -18 -120 -53 -145 -63 -152 -61 -4 2 -8
-2 -8 -8 0 -19 -27 9 -34 34 -3 13 -13 41 -23 63 -9 21 -17 41 -18 44 0 3 -16
31 -34 62 -34 60 -130 165 -191 210 -40 29 -144 78 -165 78 -7 0 -16 4 -19 9
-6 8 -28 14 -106 27 -51 8 -290 12 -290 5z m3807 -4428 c7 -9 13 -13 13 -7 0
5 9 -4 20 -21 11 -16 20 -27 20 -23 0 4 21 -16 48 -45 26 -28 74 -78 106 -110
33 -33 75 -77 93 -99 18 -22 33 -38 33 -35 0 3 27 -22 59 -55 61 -64 64 -81
13 -85 -13 0 -28 -7 -33 -15 -5 -7 -9 -8 -9 -3 0 6 -11 -3 -25 -20 -13 -16
-29 -36 -35 -42 -6 -7 -8 -13 -5 -13 3 0 3 -6 -2 -12 -10 -16 -10 -19 -12 -69
-1 -32 -4 -40 -16 -36 -8 4 -16 3 -19 -1 -8 -14 -498 -3 -611 12 -22 3 -65 8
-95 11 -29 3 -68 7 -85 10 -16 3 -48 7 -70 10 -22 2 -51 6 -65 9 -26 4 -114
18 -140 22 -8 1 -27 6 -41 12 -15 6 -30 8 -33 5 -3 -4 -6 -1 -6 5 0 7 -8 12
-19 12 -10 0 -30 9 -43 20 -14 10 -28 17 -30 14 -3 -2 -11 2 -18 11 -10 13 -6
21 28 53 85 79 96 87 132 87 19 0 49 4 65 8 17 5 37 9 44 10 8 0 41 15 72 33
59 33 179 84 198 84 6 0 11 5 11 10 0 6 3 9 8 9 17 -3 31 2 44 14 7 6 30 21
51 32 21 11 51 33 68 49 16 15 29 25 29 22 0 -4 18 10 41 31 22 21 48 42 56
47 9 5 30 24 47 43 27 30 36 34 66 29 19 -3 41 -13 47 -23z m507 -535 c4 3 6
0 6 -6 0 -6 9 -13 19 -17 13 -4 17 -12 14 -26 -4 -14 -11 -18 -22 -13 -35 14
-106 11 -138 -7 -31 -17 -33 -17 -33 -1 1 43 65 83 116 72 18 -4 35 -5 38 -2z
m-4179 -1512 c31 -5 72 -30 90 -54 14 -19 19 -42 19 -82 -1 -90 -18 -128 -84
-190 -43 -40 -67 -49 -87 -29 -6 6 -18 12 -28 13 -23 3 -95 66 -95 82 0 8 -5
14 -11 14 -5 0 -7 5 -4 10 3 6 2 10 -3 10 -11 0 -5 77 10 115 9 25 88 115 88
100 0 -2 15 2 33 10 17 8 39 12 47 9 8 -3 20 -7 25 -8z"/>
<path d="M7710 12634 c0 -8 4 -13 9 -10 5 3 9 -6 9 -20 0 -15 6 -30 13 -35 11
-7 11 -9 1 -9 -10 0 -10 -4 2 -15 8 -9 12 -23 9 -32 -5 -12 -2 -15 10 -10 15
6 16 3 7 -13 -8 -15 -8 -20 1 -20 8 0 7 -5 -2 -17 -10 -11 -10 -14 -1 -9 8 4
13 1 14 -11 0 -10 3 -31 5 -48 2 -16 4 -42 5 -57 0 -15 4 -25 9 -22 5 3 9 0 9
-5 0 -6 -3 -11 -7 -11 -5 0 -8 -18 -9 -39 0 -25 4 -37 10 -33 6 3 5 -2 -3 -12
-13 -15 -13 -19 0 -27 11 -7 11 -9 -3 -9 -10 0 -18 -3 -19 -7 0 -5 -2 -17 -5
-28 -2 -11 -5 -30 -6 -42 -1 -13 -6 -23 -11 -23 -5 0 -3 -8 4 -17 8 -9 9 -14
3 -10 -8 4 -14 -6 -18 -28 -4 -19 -6 -36 -6 -37 1 -2 -3 -16 -9 -31 -9 -22 -8
-27 2 -21 6 4 3 -3 -8 -16 -12 -14 -14 -20 -5 -15 13 8 13 6 2 -8 -8 -9 -11
-21 -7 -27 3 -5 1 -10 -6 -10 -7 0 -5 -9 7 -22 19 -22 19 -22 0 -8 -18 14 -19
13 -13 -2 3 -10 2 -20 -4 -24 -6 -4 -5 -12 3 -22 10 -12 10 -14 1 -8 -7 4 -13
2 -13 -3 0 -6 6 -11 13 -11 8 -1 7 -5 -4 -13 -11 -9 -14 -20 -8 -40 4 -15 4
-25 -1 -22 -4 3 -11 -2 -14 -11 -5 -12 -1 -14 17 -9 19 5 20 5 4 -5 -15 -10
-16 -14 -5 -28 7 -9 8 -13 2 -9 -7 4 -14 0 -18 -8 -3 -8 -1 -15 3 -15 10 0 9
-19 -2 -37 -4 -7 0 -16 10 -22 12 -7 13 -10 4 -11 -11 0 -11 -3 0 -17 8 -10 9
-14 2 -10 -6 4 -14 3 -18 -3 -3 -5 -2 -10 3 -10 12 0 11 -34 -2 -42 -8 -5 -7
-8 1 -8 8 0 11 -13 9 -35 -2 -28 1 -35 12 -30 12 4 12 2 3 -8 -9 -11 -10 -86
-2 -116 1 -2 9 3 19 10 15 12 14 11 -1 -8 -11 -12 -16 -27 -12 -32 3 -6 1 -11
-5 -11 -6 0 -8 -5 -5 -10 4 -6 10 -8 13 -6 4 2 6 -14 4 -36 -4 -32 -2 -39 9
-32 12 7 12 5 0 -9 -13 -16 -8 -22 13 -18 5 1 4 -4 -2 -12 -9 -10 -9 -17 1
-27 10 -10 9 -11 -2 -5 -11 6 -13 4 -8 -9 4 -10 7 -20 7 -22 0 -3 6 -2 13 2 8
6 8 3 -1 -9 -8 -9 -11 -25 -7 -36 3 -11 8 -29 10 -41 2 -12 10 -29 17 -38 11
-13 11 -14 -2 -7 -13 8 -13 7 -1 -8 11 -14 11 -17 0 -17 -8 0 -6 -6 7 -16 10
-8 13 -12 6 -9 -11 6 -12 3 -3 -14 7 -12 9 -26 6 -31 -4 -6 1 -13 10 -16 12
-5 13 -9 4 -20 -11 -13 -5 -19 16 -14 6 1 4 -4 -2 -11 -10 -10 -9 -17 5 -33 9
-11 11 -16 4 -12 -11 7 -12 4 -3 -11 6 -11 7 -23 4 -27 -3 -3 -1 -6 6 -6 7 0
10 -4 7 -8 -2 -4 -1 -14 4 -22 6 -10 9 5 9 45 0 33 1 67 1 75 1 37 -7 65 -19
62 -7 -1 -10 2 -6 8 3 6 10 8 14 6 3 -3 7 41 8 97 0 83 -3 104 -16 114 -14 10
-12 11 9 6 19 -4 22 -3 14 6 -6 7 -9 30 -7 53 4 32 2 39 -8 33 -11 -6 -12 -5
-1 6 14 15 17 83 3 74 -5 -3 -13 0 -17 6 -4 7 -3 9 2 6 6 -3 16 -2 24 4 8 5
10 9 4 9 -11 0 -11 71 0 89 4 5 2 12 -3 15 -5 3 -7 22 -4 42 4 28 2 35 -9 29
-7 -3 -4 1 6 9 11 9 15 16 10 16 -5 0 -10 9 -10 20 0 11 4 20 9 20 4 0 5 6 0
13 -4 6 -8 19 -8 27 0 8 -6 14 -13 12 -8 -1 -11 2 -7 8 3 6 11 7 17 4 6 -4 8
3 7 17 -2 13 0 30 4 37 5 6 4 12 -1 12 -5 0 -8 17 -7 38 2 20 -2 40 -9 44 -7
5 -4 8 7 8 12 0 16 4 11 12 -11 17 -13 134 -3 150 5 7 1 21 -9 32 -9 11 -11
16 -4 12 8 -5 12 2 12 26 0 19 -6 40 -12 47 -11 11 -10 12 0 7 9 -6 11 -1 8
18 -3 15 0 26 6 26 6 0 6 6 -2 15 -7 8 -9 15 -5 15 4 0 1 8 -6 17 -10 11 -10
14 -1 9 8 -5 12 0 12 14 0 14 -4 19 -12 14 -7 -4 -5 1 4 12 12 14 14 24 7 37
-6 9 -7 17 -3 17 3 0 0 8 -7 17 -10 12 -10 15 -1 9 10 -6 12 9 9 68 -2 50 0
76 7 76 7 0 7 3 1 8 -11 8 -13 131 -2 149 4 6 3 14 -3 18 -6 3 -8 17 -6 31 3
13 1 22 -4 19 -5 -3 -12 4 -15 16 -4 11 -9 18 -12 15 -3 -2 -20 10 -38 27 -37
37 -55 44 -55 21z m100 -508 c0 -2 -7 -7 -16 -10 -8 -3 -12 -2 -9 4 6 10 25
14 25 6z m-5 -94 c-3 -3 -11 0 -18 7 -9 10 -8 11 6 5 10 -3 15 -9 12 -12z m16
-119 c13 -16 12 -17 -3 -4 -17 13 -22 21 -14 21 2 0 10 -8 17 -17z m-51 -7 c0
-3 -4 -8 -10 -11 -5 -3 -10 -1 -10 4 0 6 5 11 10 11 6 0 10 -2 10 -4z m40 -46
c0 -5 -5 -10 -11 -10 -5 0 -7 5 -4 10 3 6 8 10 11 10 2 0 4 -4 4 -10z m-20
-160 c0 -5 -2 -10 -4 -10 -3 0 -8 5 -11 10 -3 6 -1 10 4 10 6 0 11 -4 11 -10z
m20 -99 c0 -6 -4 -12 -8 -15 -5 -3 -9 1 -9 9 0 8 4 15 9 15 4 0 8 -4 8 -9z
m-65 -21 c3 -5 1 -10 -4 -10 -6 0 -11 5 -11 10 0 6 2 10 4 10 3 0 8 -4 11 -10z
m5 -160 c0 -5 -2 -10 -4 -10 -3 0 -8 5 -11 10 -3 6 -1 10 4 10 6 0 11 -4 11
-10z m60 -80 c0 -5 -5 -10 -11 -10 -5 0 -7 5 -4 10 3 6 8 10 11 10 2 0 4 -4 4
-10z m-80 -56 c0 -8 -19 -13 -24 -6 -3 5 1 9 9 9 8 0 15 -2 15 -3z m20 -144
c0 -5 -2 -10 -4 -10 -3 0 -8 5 -11 10 -3 6 -1 10 4 10 6 0 11 -4 11 -10z m54
-66 c3 -8 2 -12 -4 -9 -6 3 -10 10 -10 16 0 14 7 11 14 -7z"/>
<path d="M9680 12026 c-71 -17 -158 -50 -173 -65 -6 -6 -15 -11 -20 -11 -18 0
-153 -96 -227 -161 -179 -157 -358 -368 -500 -587 l-65 -100 -112 2 c-138 3
-295 -14 -338 -36 -11 -6 -21 -11 -22 -10 -5 3 -20 -2 -56 -16 -16 -7 -34 -12
-41 -12 -8 0 -19 -7 -26 -15 -7 -8 -17 -15 -23 -15 -26 0 -157 -109 -157 -131
0 -5 -4 -9 -10 -9 -5 0 -10 -8 -10 -18 0 -10 -5 -23 -11 -29 -5 -5 -13 -34
-15 -64 -3 -30 -7 -60 -9 -66 -3 -7 1 -13 7 -13 6 0 9 -3 5 -6 -9 -10 21 -66
48 -89 13 -11 25 -35 28 -55 11 -91 84 -151 180 -151 160 0 230 78 173 194
-18 37 -18 37 5 72 23 34 142 105 154 93 3 -3 -23 -63 -57 -134 -34 -71 -63
-131 -63 -134 -1 -3 -9 -23 -19 -45 -10 -22 -26 -62 -37 -90 -11 -27 -24 -59
-29 -70 -14 -31 -76 -222 -99 -306 -37 -141 -46 -204 -46 -339 1 -122 15 -174
64 -229 11 -13 21 -30 21 -38 0 -22 1 -27 22 -67 45 -89 120 -133 258 -152
115 -16 150 -10 121 22 -26 28 -34 176 -16 314 11 89 43 269 50 280 2 4 7 22
10 41 31 185 200 665 332 946 12 25 20 32 37 28 11 -2 44 -7 71 -11 58 -8 56
-8 115 -23 110 -29 111 -30 106 -64 -11 -63 -17 -91 -22 -99 -3 -5 -7 -29 -10
-55 -2 -25 -7 -50 -11 -56 -4 -6 -8 -20 -9 -32 -2 -11 -10 -54 -19 -95 -9 -41
-18 -85 -21 -97 -7 -37 -13 -67 -18 -88 -2 -11 -16 -74 -29 -140 -34 -159 -65
-305 -72 -333 -5 -21 -2 -22 38 -21 56 3 70 -6 63 -39 -3 -15 -9 -45 -12 -67
-3 -22 -8 -43 -10 -47 -7 -11 34 -13 248 -10 229 3 212 -2 224 69 3 16 7 36
10 45 6 19 10 42 18 93 4 20 8 41 11 45 2 3 7 22 10 41 3 19 9 52 15 74 9 41
47 214 54 250 6 31 97 457 102 480 3 11 7 29 8 40 2 11 16 76 31 145 15 69 29
134 30 145 2 11 4 20 5 20 2 0 6 18 13 60 3 17 8 37 11 45 3 8 7 32 10 52 3
21 11 59 17 85 6 27 13 59 16 73 8 40 9 44 16 65 3 11 8 38 12 60 3 22 7 47
10 55 2 8 7 27 10 43 3 15 8 39 11 55 4 15 7 34 8 42 1 9 5 21 10 28 4 6 5 12
2 12 -2 0 0 15 5 33 5 17 12 48 15 67 3 19 7 43 10 52 3 10 8 30 10 45 3 15 7
30 10 32 7 7 -56 31 -83 31 -23 0 -25 3 -19 33 4 17 9 49 12 69 l6 37 -54 16
c-72 22 -248 28 -318 11z m-134 -231 c-1 -8 -29 -32 -62 -54 -32 -22 -71 -49
-86 -61 -42 -33 -33 -15 13 28 36 32 128 102 135 102 1 0 1 -7 0 -15z m-75
-363 c-12 -53 -24 -108 -26 -122 -10 -49 -13 -66 -25 -115 -6 -27 -13 -59 -15
-70 -8 -46 -37 -170 -41 -174 -2 -2 -47 11 -100 28 -53 18 -105 33 -115 34
-11 1 -19 7 -19 13 0 45 289 474 319 474 4 0 14 12 21 26 23 42 23 10 1 -94z"/>
<path d="M11567 11874 c-2 -2 -25 -6 -53 -9 -27 -3 -62 -8 -79 -11 -45 -8 -85
-14 -130 -19 -22 -3 -49 -7 -60 -9 -11 -3 -30 -5 -42 -5 -22 -1 -32 -23 -47
-101 -2 -14 -10 -47 -16 -75 -6 -27 -14 -59 -16 -70 -2 -11 -6 -31 -9 -45 -4
-14 -8 -36 -11 -50 -2 -14 -7 -36 -10 -50 -3 -14 -8 -36 -11 -50 -2 -13 -13
-61 -23 -106 -22 -93 -32 -143 -33 -162 -1 -19 -16 0 -20 26 -9 62 -103 111
-222 116 -68 3 -220 -18 -239 -33 -6 -4 -25 -13 -43 -19 -54 -18 -165 -96
-230 -163 -35 -34 -63 -66 -63 -70 0 -5 -9 -16 -19 -26 -27 -26 -134 -233
-169 -328 -58 -158 -83 -284 -87 -445 -4 -160 23 -290 81 -380 13 -19 31 -55
40 -80 34 -88 89 -152 166 -193 41 -21 55 -27 108 -44 8 -2 54 -6 101 -8 83
-4 160 10 216 37 13 6 26 9 29 5 4 -3 -2 -39 -12 -79 -10 -40 -19 -80 -20 -88
-1 -8 -5 -26 -8 -40 -9 -37 -36 -161 -42 -189 -3 -13 -12 -51 -20 -85 -8 -34
-16 -70 -18 -81 -2 -11 -7 -39 -11 -62 l-7 -42 58 14 c32 7 59 13 60 12 1 -1
-9 -42 -20 -90 -12 -48 -21 -89 -19 -91 2 -2 38 5 81 16 42 10 86 21 97 24 11
2 76 19 145 37 l125 32 12 55 c7 30 15 69 18 85 2 17 12 62 21 100 9 39 17 79
19 90 2 11 13 63 25 115 12 52 24 105 26 118 2 12 6 32 8 45 2 12 10 45 16 72
15 65 18 78 19 88 1 4 19 -10 42 -32 22 -23 43 -40 47 -39 4 1 21 -5 37 -12
45 -19 198 -21 289 -4 186 36 332 138 452 319 88 133 143 295 180 535 10 60
10 397 1 435 -4 17 -9 40 -11 53 -5 24 -44 109 -70 152 -8 14 -27 53 -42 88
-54 125 -166 192 -323 194 -97 1 -137 -4 -200 -26 -24 -9 -45 -16 -46 -16 -2
0 3 28 12 63 8 34 16 69 18 77 1 8 8 33 13 55 6 22 13 51 16 65 2 14 16 75 29
137 l25 112 -47 -6 c-25 -3 -50 -6 -56 -7 -12 -1 -10 19 8 102 7 34 13 63 13
63 -2 4 -46 6 -49 3z m13 -874 c-41 -34 -50 -37 -45 -12 2 9 4 20 4 24 1 6 21
11 66 16 6 1 -6 -12 -25 -28z m-614 -135 c-5 -27 -12 -63 -21 -105 -2 -8 -4
-15 -5 -15 -1 0 -3 -13 -5 -28 -2 -15 -16 -80 -30 -145 -15 -64 -29 -128 -31
-142 -3 -14 -12 -54 -20 -90 -9 -36 -18 -81 -20 -100 -3 -19 -8 -44 -11 -55
-4 -11 -8 -22 -8 -25 -1 -3 -7 -18 -13 -33 -7 -16 -12 -31 -12 -33 0 -3 -16
-25 -36 -49 -68 -83 -179 -132 -244 -107 -25 10 -26 12 -24 98 1 49 5 109 8
134 15 95 53 255 72 300 1 3 5 16 10 30 13 41 95 202 123 240 71 99 160 158
234 156 37 -1 39 -2 33 -31z m784 -10 c10 -3 19 -14 19 -23 1 -153 -2 -240
-13 -297 -3 -16 -8 -48 -12 -70 -3 -22 -11 -49 -17 -60 -6 -11 -9 -22 -8 -25
4 -9 -11 -75 -19 -85 -5 -5 -9 -14 -9 -20 -6 -68 -101 -229 -175 -298 -54 -50
-174 -92 -206 -72 -4 3 -4 22 1 42 5 21 13 58 19 83 5 25 19 90 30 145 12 55
23 112 25 128 2 15 6 31 9 35 3 5 8 31 12 58 3 27 8 52 11 57 2 4 7 20 9 35 3
15 9 46 15 70 5 23 12 59 15 80 7 48 40 122 53 122 6 0 11 5 11 11 0 13 15 27
55 56 52 36 117 47 175 28z"/>
<path d="M13058 11264 c-2 -1 -16 -4 -33 -7 -64 -11 -163 -48 -224 -84 -62
-37 -185 -150 -226 -207 -11 -16 -25 -33 -30 -40 -19 -21 -65 -96 -65 -105 0
-5 -3 -11 -8 -13 -20 -9 -121 -273 -136 -358 -2 -14 -9 -47 -15 -73 -26 -111
-31 -300 -12 -397 15 -74 143 -330 188 -375 55 -55 158 -110 228 -121 11 -1
31 -5 45 -9 64 -14 215 -5 290 17 49 14 180 80 180 90 0 4 5 8 10 8 18 0 110
90 164 160 42 54 130 200 120 200 -2 0 3 14 11 31 31 59 78 225 90 316 2 16 4
28 5 28 1 0 3 22 6 49 4 52 7 59 27 62 45 7 76 13 100 19 21 6 26 4 23 -6 -3
-8 -7 -27 -10 -44 -5 -29 -9 -48 -21 -105 -4 -14 -8 -36 -11 -50 -2 -14 -7
-36 -10 -50 -3 -14 -8 -36 -10 -50 -3 -14 -10 -43 -15 -64 -6 -22 -12 -51 -14
-65 -2 -14 -4 -26 -5 -26 -1 0 -3 -11 -6 -24 -2 -13 -11 -56 -20 -95 -8 -39
-16 -80 -18 -91 -2 -11 -9 -46 -16 -78 -15 -67 -7 -81 40 -67 30 8 64 -5 54
-22 -4 -5 -8 -27 -11 -47 -2 -20 -8 -48 -13 -63 l-9 -28 235 0 c227 0 234 1
235 20 1 11 2 23 3 28 1 4 6 23 11 42 5 19 9 42 10 50 2 12 33 159 60 280 2
12 54 259 67 322 5 23 16 25 135 26 l115 1 -7 -32 c-3 -18 -8 -45 -10 -62 -3
-16 -7 -41 -11 -55 -11 -46 -13 -200 -3 -232 15 -48 50 -117 66 -129 7 -6 13
-18 13 -27 0 -33 55 -125 97 -162 71 -62 138 -84 263 -84 76 0 118 5 150 18
25 9 50 18 57 20 48 10 243 192 243 226 0 24 17 5 39 -43 41 -89 114 -152 219
-189 87 -31 97 -32 242 -32 259 0 444 75 612 246 78 79 163 223 185 313 25
103 32 208 19 283 -9 49 -45 139 -61 152 -7 6 -26 42 -41 80 -35 91 -98 161
-177 199 -95 46 -183 55 -345 36 l-62 -7 10 27 c6 15 8 30 5 33 -2 3 0 11 6
19 6 7 9 13 6 13 -3 0 -1 15 3 33 5 17 12 46 14 62 9 50 15 76 21 95 7 23 -22
41 -50 30 -11 -4 -28 -5 -38 -2 -15 4 -17 11 -11 46 7 47 12 71 14 71 1 0 3
10 6 22 4 21 0 22 -84 25 -48 2 -151 2 -229 0 -156 -3 -147 1 -159 -69 -8 -44
-44 -212 -59 -278 -8 -33 -16 -73 -18 -90 -3 -16 -9 -48 -15 -70 -6 -22 -13
-53 -16 -70 -2 -16 -9 -52 -15 -80 -6 -27 -14 -61 -17 -75 -2 -14 -7 -32 -9
-40 -2 -8 -7 -31 -10 -50 -3 -19 -10 -51 -15 -70 -5 -19 -12 -53 -15 -75 -4
-22 -28 -85 -56 -140 -74 -150 -118 -192 -209 -200 -29 -2 -56 -2 -60 0 -6 4
19 139 45 245 15 61 28 120 32 145 2 17 9 48 14 70 5 22 12 51 14 65 3 14 8
36 12 50 4 14 8 30 8 35 1 6 5 28 10 50 11 58 16 80 30 145 13 58 15 65 40
185 9 44 19 91 22 105 2 13 6 26 9 29 2 2 -1 10 -6 16 -7 8 -22 10 -43 6 -56
-12 -66 -5 -56 37 6 20 12 48 15 62 2 14 7 30 9 37 2 7 0 15 -5 18 -7 4 -252
8 -401 5 -15 0 -22 -13 -35 -65 -1 -5 -5 -26 -9 -45 -10 -50 -13 -65 -15 -65
-1 0 -3 -7 -5 -15 -2 -14 -27 -128 -30 -140 -12 -51 -16 -68 -19 -85 -3 -11
-12 -51 -22 -90 -9 -38 -16 -78 -16 -87 0 -10 -3 -18 -9 -18 -5 0 -8 -6 -6
-12 1 -10 -29 -14 -119 -16 l-122 -2 8 37 c5 21 12 54 15 73 3 19 12 62 20 95
29 124 49 220 49 235 0 8 4 18 9 21 4 3 1 12 -8 19 -8 7 -15 8 -15 4 0 -5 -20
-8 -44 -6 -49 4 -48 -3 -25 100 7 28 10 55 7 58 -9 8 -440 6 -449 -3 -4 -4
-17 -48 -28 -98 -21 -95 -23 -105 -41 -200 -7 -33 -16 -68 -22 -79 -7 -14 -7
-17 2 -11 9 6 9 2 0 -14 -10 -19 -40 -38 -75 -47 -38 -10 -141 -34 -146 -34
-3 0 -11 24 -19 53 -14 57 -58 159 -71 168 -5 3 -20 32 -33 65 -44 113 -136
197 -241 220 -29 7 -232 14 -237 8z m262 -365 c0 -4 -9 -13 -20 -19 -37 -20
-71 -76 -74 -123 -2 -24 -6 -48 -9 -53 -9 -16 37 -99 61 -109 21 -9 22 -15 18
-65 -3 -30 -15 -89 -26 -130 -11 -41 -25 -92 -30 -113 -6 -21 -14 -45 -19 -55
-5 -9 -26 -52 -47 -95 -45 -93 -127 -187 -181 -208 -45 -17 -107 -17 -128 1
-21 18 -14 181 15 325 13 69 12 66 30 125 8 25 14 47 15 50 6 27 45 130 72
189 53 117 157 261 189 261 7 0 14 5 16 10 2 6 17 13 33 16 16 3 31 7 33 8 6
6 52 -7 52 -15z m517 -260 c-2 -28 -29 -40 -102 -46 -95 -7 -94 15 1 33 12 2
37 11 55 19 45 19 48 19 46 -6z m2385 -257 c4 -1 14 -9 22 -18 16 -15 15 -43
-1 -119 -4 -16 -7 -32 -8 -35 -8 -68 -139 -270 -175 -270 -5 0 -10 -4 -10 -9
0 -7 -15 -14 -50 -22 -3 0 -9 -4 -15 -8 -8 -7 -47 -8 -91 -2 -8 1 -9 12 -3 39
4 20 8 37 8 37 -1 0 9 49 30 145 12 52 22 104 24 115 15 86 20 95 53 111 71
34 159 48 216 36z m-861 -499 c-5 -10 -24 -34 -41 -53 -29 -33 -30 -33 -13 -5
10 17 23 36 30 43 7 7 13 18 13 23 0 5 5 9 10 9 7 0 7 -6 1 -17z"/>
<path d="M18065 11259 c-37 -9 -144 -57 -155 -69 -3 -3 -25 -21 -50 -39 -47
-36 -217 -204 -309 -306 -32 -36 -51 -51 -47 -38 4 12 9 30 11 40 2 10 9 41
15 68 7 28 13 57 14 65 1 8 6 32 10 52 4 20 5 41 2 46 -3 5 -26 6 -51 2 -25
-4 -47 -4 -50 -1 -2 4 3 36 10 71 7 35 11 68 9 72 -3 4 1 9 8 9 7 1 -5 5 -27
8 -22 3 -129 5 -237 3 l-197 -3 -5 -27 c-3 -15 -8 -40 -11 -57 -8 -52 -14 -75
-18 -83 -3 -4 -8 -25 -11 -47 -4 -22 -11 -56 -16 -75 -5 -19 -11 -52 -14 -74
-4 -21 -8 -42 -11 -46 -3 -5 -7 -21 -9 -37 -2 -15 -24 -123 -49 -239 -26 -116
-49 -227 -52 -245 -3 -19 -10 -52 -16 -74 -15 -61 -20 -88 -23 -110 -1 -12 -5
-25 -8 -31 -4 -5 -9 -31 -12 -58 -3 -26 -8 -52 -12 -57 -3 -5 -8 -22 -10 -37
-3 -15 -16 -81 -30 -147 -14 -66 -27 -127 -29 -137 -3 -12 6 -17 36 -20 22 -2
47 1 56 6 14 7 15 4 10 -30 -8 -50 -16 -94 -23 -116 -5 -16 10 -17 163 -20 92
-2 196 -2 230 0 l62 3 10 37 c6 20 13 52 16 70 4 27 21 104 41 197 2 11 7 34
10 50 3 17 12 59 20 95 8 36 17 76 19 90 6 32 13 65 15 65 1 0 3 16 6 35 2 19
12 40 22 47 9 7 23 18 31 24 56 49 116 79 157 79 44 0 44 0 40 -32 -4 -32 -10
-70 -21 -133 -14 -75 -16 -167 -5 -218 12 -59 45 -135 65 -152 7 -5 18 -28 25
-50 47 -151 171 -225 370 -220 107 3 138 11 218 56 54 30 182 147 182 167 0 5
9 17 19 26 18 17 20 15 45 -36 27 -54 88 -128 106 -128 6 0 10 -4 10 -8 0 -14
106 -62 157 -72 75 -14 190 -5 258 20 99 37 203 121 286 229 16 21 16 20 33
-21 49 -120 87 -168 159 -205 98 -49 251 -37 321 25 17 15 69 90 71 102 1 3
15 32 31 65 48 97 50 90 -27 90 -37 0 -71 3 -74 7 -4 3 8 33 24 67 17 34 28
61 25 61 -4 0 -1 6 5 14 10 12 4 13 -42 9 -45 -4 -55 -2 -61 12 -3 9 -4 20 -1
24 2 4 7 21 9 37 3 16 8 40 12 54 3 14 7 35 9 47 2 11 6 31 10 43 4 12 8 32
10 43 1 12 6 33 9 47 4 14 9 39 11 55 2 17 4 30 5 30 1 0 3 9 5 20 3 11 15 69
29 130 13 60 22 113 19 117 -2 5 0 8 4 8 5 0 9 8 9 18 1 9 4 28 7 42 11 46 15
67 21 101 3 19 8 43 10 54 18 71 56 259 53 261 -1 2 -26 4 -55 5 -51 3 -53 3
-47 28 6 31 13 66 20 104 l5 27 -112 0 c-62 1 -161 1 -220 1 -59 0 -112 -2
-118 -6 -10 -6 -30 -72 -33 -106 -2 -28 -14 -23 -22 9 -17 70 -107 115 -235
116 -139 1 -224 -21 -340 -87 -54 -31 -190 -160 -240 -227 -73 -98 -146 -246
-183 -371 -49 -164 -59 -220 -72 -387 -6 -89 -58 -180 -129 -226 -37 -24 -143
-29 -138 -7 2 8 5 35 7 60 2 25 8 65 13 88 25 108 2 265 -46 316 -11 12 -30
49 -41 82 -26 74 -80 130 -146 147 -25 7 -45 16 -45 21 0 11 151 162 176 175
20 11 22 8 28 -27 4 -25 18 -52 40 -74 54 -56 161 -62 247 -15 97 54 112 255
26 342 -23 23 -28 37 -27 71 1 14 -35 72 -54 88 -48 40 -133 55 -211 36z
m-160 -295 c-89 -82 -107 -95 -43 -31 37 37 71 67 75 67 4 0 -11 -16 -32 -36z
m1496 -78 c1 -3 -2 -28 -7 -54 -11 -64 -11 -66 -14 -72 -2 -5 -5 -22 -13 -60
-3 -14 -14 -65 -26 -114 -11 -50 -17 -94 -15 -98 3 -4 0 -8 -6 -8 -6 0 -9 -4
-6 -9 3 -4 1 -23 -4 -41 -5 -18 -12 -51 -16 -74 -3 -22 -8 -44 -11 -48 -2 -5
-7 -21 -9 -36 -3 -15 -7 -36 -9 -47 -33 -173 -154 -299 -278 -290 -27 2 -54 8
-59 13 -19 19 -9 188 17 313 20 88 21 95 34 137 5 18 10 34 11 37 6 34 66 178
98 235 64 116 148 199 222 220 30 8 90 6 91 -4z m-131 -991 c0 -17 -60 -78
-69 -70 -3 4 -1 9 5 13 5 4 20 22 33 40 25 36 31 39 31 17z m-886 -35 c-10
-16 -23 -31 -30 -34 -7 -3 -2 11 9 29 27 42 45 46 21 5z"/>
<path d="M11596 9118 c-9 -5 -16 -6 -16 -3 0 14 -77 -40 -113 -79 -39 -42 -93
-142 -101 -186 -3 -14 -5 -25 -6 -25 -4 0 -10 -45 -13 -101 -5 -75 15 -141 51
-169 14 -11 33 -28 41 -38 9 -10 26 -28 38 -41 22 -23 23 -23 3 -41 -10 -9
-25 -36 -33 -59 -19 -55 -3 -102 44 -134 19 -13 37 -32 41 -43 12 -32 66 -58
122 -57 28 0 56 4 61 8 10 8 16 10 34 10 5 0 28 18 50 40 28 28 45 57 55 93
16 53 27 102 28 124 1 6 20 19 43 28 23 8 59 31 80 50 l39 34 15 -22 c35 -51
93 -75 171 -71 82 4 131 21 189 66 37 28 61 24 55 -9 -2 -16 -6 -33 -8 -39 -3
-7 15 -12 46 -13 27 -1 52 -2 56 -2 24 -4 74 2 69 8 -4 3 -3 11 2 17 5 6 12
29 15 51 3 22 10 57 15 78 5 20 7 37 4 37 -3 0 -1 6 5 13 6 6 10 15 10 20 0
30 29 160 43 195 21 47 35 56 24 15 -11 -44 -16 -66 -19 -88 -2 -11 -6 -29 -9
-40 -3 -11 -8 -33 -11 -49 -3 -16 -10 -52 -16 -80 -21 -104 -22 -98 8 -96 63
4 65 3 59 -40 -4 -32 -2 -40 11 -41 10 -1 24 -2 32 -3 8 -1 24 2 36 5 11 4 27
4 34 -1 17 -11 53 3 56 21 6 31 13 62 19 80 4 11 8 32 10 47 5 31 10 58 25
122 5 25 12 56 14 70 12 65 42 130 59 130 5 0 6 -8 2 -17 -4 -10 -9 -27 -11
-38 -8 -40 -12 -60 -18 -85 -32 -139 -25 -175 50 -248 30 -29 54 -57 54 -62 0
-6 9 -10 19 -10 11 0 22 -4 25 -9 3 -4 26 -8 51 -8 25 0 48 4 51 8 3 5 13 9
23 9 10 0 36 17 57 38 l39 37 40 -41 c44 -44 46 -44 145 -46 52 -2 77 4 125
26 33 15 62 31 65 37 4 5 19 12 34 15 26 4 26 3 24 -38 -2 -29 1 -42 9 -41 6
2 26 3 42 3 17 0 45 0 63 0 37 1 58 15 58 41 0 51 43 216 59 226 15 9 17 7 16
-18 -1 -16 -4 -32 -8 -35 -3 -4 -1 -16 5 -28 6 -11 10 -22 9 -24 -9 -10 25
-63 43 -68 13 -3 30 -19 40 -35 10 -16 28 -37 42 -45 27 -18 131 -27 140 -13
3 5 10 7 15 4 5 -4 9 -1 9 4 0 6 6 11 14 11 7 0 27 15 43 34 l29 35 26 -33
c38 -47 81 -65 142 -59 28 2 56 9 63 15 7 6 13 7 13 3 0 -4 16 9 35 29 41 43
52 44 65 11 26 -67 134 -81 214 -27 l44 30 23 -24 c51 -55 155 -55 202 0 26
31 57 93 50 100 -4 3 -1 6 5 6 6 0 16 -9 22 -19 5 -11 19 -22 29 -26 11 -3 30
-22 42 -41 23 -38 54 -55 109 -59 55 -4 87 18 115 80 l13 30 -35 5 c-56 8 -60
23 -35 147 13 59 25 117 27 128 3 11 7 31 10 45 7 35 12 61 19 90 20 85 20 84
-51 80 -32 -1 -32 -1 -23 31 6 18 6 37 2 41 -8 8 -65 10 -202 7 -186 -4 -293
-86 -285 -218 3 -51 7 -58 55 -104 32 -31 49 -55 46 -64 -3 -8 -6 -22 -6 -31
0 -9 -7 -26 -15 -36 -13 -16 -17 -17 -31 -5 -9 8 -19 13 -21 12 -10 -8 -19 0
-20 19 -3 40 -44 60 -89 45 -21 -7 -44 -45 -44 -72 0 -8 -4 -16 -8 -19 -7 -4
2 50 23 139 8 30 17 77 20 100 2 11 4 20 5 20 2 0 6 20 14 66 3 20 8 43 12 52
5 14 -1 17 -37 18 -24 1 -47 1 -51 0 -7 -1 -4 25 7 59 5 17 -2 19 -70 22 -76
3 -107 -1 -106 -15 3 -26 -2 -28 -23 -8 -27 25 -105 35 -147 18 -13 -6 -30
-11 -37 -13 -19 -4 -84 -63 -105 -96 -19 -27 -37 -30 -37 -4 0 17 -33 46 -53
46 -8 0 -19 10 -23 23 -23 76 -107 76 -194 -2 -29 -26 -43 -31 -86 -31 -49 0
-52 1 -50 25 0 14 4 25 7 25 3 0 6 7 6 15 0 11 -13 15 -46 16 -48 1 -125 -2
-128 -4 0 -1 -4 -18 -7 -37 -3 -19 -9 -48 -14 -64 -8 -29 -9 -29 -23 -10 -8
11 -22 23 -32 27 -10 4 -25 20 -35 36 -24 43 -59 59 -128 59 -77 0 -128 -22
-187 -81 -58 -56 -107 -154 -109 -214 0 -5 -4 -15 -8 -24 -5 -8 -10 -39 -11
-67 -2 -29 -6 -52 -11 -52 -4 0 -8 -6 -8 -14 0 -7 -7 -19 -15 -26 -19 -16 -19
-11 6 85 30 119 33 213 8 254 -11 18 -29 35 -40 38 -11 3 -26 18 -35 34 -17
33 -65 61 -109 64 -42 2 -105 -24 -138 -57 -16 -15 -32 -28 -35 -28 -4 0 -13
14 -21 31 -13 30 -56 54 -91 53 -8 -1 -29 -2 -46 -2 -17 -1 -48 -13 -68 -27
-20 -14 -39 -25 -42 -25 -2 0 -2 11 2 25 7 28 9 28 -96 25 -36 -1 -68 -7 -72
-13 -4 -6 -10 -33 -13 -60 -4 -26 -10 -47 -14 -45 -32 15 -81 57 -85 74 -9 33
-75 58 -138 51 -29 -3 -60 -8 -68 -10 -52 -16 -60 -20 -60 -28 0 -5 -6 -9 -12
-9 -15 -1 -83 -84 -101 -122 -13 -31 -24 -36 -24 -13 0 8 4 15 9 15 5 0 7 4 4
9 -4 5 -2 21 3 34 11 29 0 37 -55 37 -36 0 -37 6 -19 67 5 15 -23 19 -107 15
-65 -3 -68 -5 -68 -28 0 -15 -4 -23 -10 -19 -6 4 -8 10 -5 14 14 23 -115 48
-149 29z m711 -64 c2 -6 -2 -11 -9 -12 -25 -2 -48 -8 -54 -15 -4 -4 -12 -7
-18 -7 -6 1 3 12 19 25 30 25 55 29 62 9z m1353 0 c-6 -12 -70 -34 -70 -24 0
12 44 38 60 35 8 -1 13 -6 10 -11z m1766 -7 c3 -3 -11 -9 -32 -13 -22 -4 -56
-13 -76 -20 -44 -15 -51 -4 -10 17 51 25 102 32 118 16z m-3727 -1 c-2 -2 -17
-6 -34 -10 -22 -5 -26 -4 -15 4 14 9 59 15 49 6z m3040 0 c-2 -2 -20 -6 -39
-10 -25 -4 -31 -3 -20 4 14 9 69 15 59 6z m-506 -38 c4 -15 -3 -32 -26 -59
-30 -34 -81 -59 -94 -45 -6 6 60 92 87 113 21 17 27 16 33 -9z m-1173 -5 c0
-3 -9 -16 -20 -30 l-20 -25 -10 28 c-8 20 -8 29 1 34 11 8 49 2 49 -7z m-1336
-65 c-1 -13 -3 -23 -4 -23 -1 0 -3 -8 -5 -19 -2 -10 -8 -39 -14 -65 -6 -25
-13 -62 -16 -81 -9 -51 -66 -132 -79 -112 -8 13 3 90 20 147 2 6 5 17 6 25 8
36 78 150 93 150 1 0 1 -10 -1 -22z m2027 -42 c-10 -38 -11 -38 47 -39 15 -1
21 -6 18 -16 -5 -17 -19 -82 -21 -91 -3 -24 -113 -123 -126 -114 -5 3 -9 1 -9
-4 0 -11 -58 -22 -77 -15 -28 11 10 196 60 290 16 29 21 32 56 28 30 -3 41 1
47 13 12 29 17 -11 5 -52z m1004 37 c-4 -16 -8 -35 -9 -43 -1 -8 -6 -31 -10
-50 -4 -19 -8 -42 -10 -50 -13 -71 -22 -93 -45 -119 -38 -42 -49 -39 -44 12 8
87 58 215 100 257 24 25 26 24 18 -7z m632 -52 c-12 -55 -22 -67 -44 -53 -18
11 0 78 29 109 28 31 32 17 15 -56z m-1002 13 c34 6 35 5 24 -16 -13 -23 -16
-39 -26 -118 -11 -92 -55 -153 -47 -66 6 57 -8 92 -47 115 -17 10 -37 31 -45
47 -14 26 -13 29 17 60 l32 33 28 -30 c24 -26 33 -30 64 -25z m-2000 -16 c-18
-52 -66 -105 -113 -125 -68 -28 -61 22 8 57 22 11 57 42 78 69 20 26 38 47 39
46 2 -1 -4 -22 -12 -47z m50 -115 c-1 -14 -10 -32 -19 -38 -9 -7 -16 -17 -16
-23 0 -6 -9 -14 -20 -17 -11 -3 -20 -10 -20 -14 0 -13 -74 -49 -112 -55 -37
-6 -38 -5 -38 27 0 33 2 34 60 51 62 17 125 50 149 80 18 22 20 21 16 -11z
m-488 -85 c-3 -7 -5 -2 -5 12 0 14 2 19 5 13 2 -7 2 -19 0 -25z m3341 -14 c-1
-19 -6 -38 -10 -40 -5 -3 -6 -9 -3 -14 3 -5 1 -11 -5 -15 -5 -3 -10 -13 -10
-22 0 -25 -40 -63 -67 -63 -13 0 -23 5 -23 10 0 6 4 10 8 10 25 0 62 55 92
138 16 42 21 41 18 -4z m-2883 -41 c-4 -10 -8 -28 -10 -41 -4 -35 -11 -39 -87
-46 -45 -5 -47 -1 -10 18 15 8 45 30 67 50 44 41 50 43 40 19z m1360 -10 c-4
-16 -8 -33 -9 -40 -4 -23 -14 -28 -76 -37 -43 -7 -43 5 2 33 24 16 52 38 62
49 25 29 30 28 21 -5z m963 -43 c-4 -21 -58 -26 -58 -6 0 9 4 16 9 16 5 0 13
10 17 22 6 21 7 21 21 3 7 -11 12 -26 11 -35z m-2747 18 c23 -29 23 -34 1 -55
-53 -50 -86 -55 -76 -10 5 27 41 85 52 86 2 1 12 -9 23 -21z m1363 0 c9 -36 8
-38 -24 -38 -35 0 -36 2 -14 35 20 31 30 31 38 3z m1060 6 c13 -33 6 -44 -24
-44 -35 0 -36 2 -14 35 19 29 29 31 38 9z m600 -30 c8 -21 3 -26 -17 -18 -9 3
-13 12 -10 20 7 19 19 18 27 -2z m-3391 -151 c-6 -19 -83 -92 -95 -93 -5 0 -9
7 -9 15 -1 8 -2 19 -3 24 -1 4 10 22 23 40 18 24 32 31 57 31 28 0 32 -3 27
-17z"/>
<path d="M16310 8143 c-23 -8 -40 -34 -40 -61 0 -28 37 -65 57 -58 24 10 26
-22 3 -68 -23 -48 -46 -74 -47 -53 -5 75 -16 97 -48 97 -26 0 -45 25 -45 60 0
17 -5 21 -27 20 -16 -1 -30 -1 -33 0 -16 5 -80 4 -80 -2 0 -4 -7 -5 -15 -2
-19 8 -19 -2 0 -89 8 -38 17 -85 20 -105 3 -20 12 -66 19 -102 9 -43 10 -71 4
-85 -11 -23 -91 -85 -111 -85 -7 0 -18 -5 -25 -12 -15 -15 -16 2 -2 52 5 19
11 46 14 60 2 14 14 70 26 125 12 55 24 115 27 134 l5 33 -41 -4 c-47 -4 -53
4 -44 58 6 34 5 36 -15 25 -12 -7 -23 -7 -27 -2 -3 6 -17 6 -35 1 -17 -5 -30
-5 -30 -1 0 4 -13 6 -30 3 -17 -2 -30 -10 -30 -18 0 -18 -7 -18 -38 4 -36 25
-115 22 -173 -6 -105 -51 -188 -194 -204 -356 -6 -56 -21 -96 -37 -96 -10 0
12 131 30 180 3 8 5 18 4 22 -1 3 5 30 12 60 8 29 16 69 18 88 3 30 0 35 -19
35 -12 0 -25 4 -28 7 -4 4 -14 4 -23 1 -13 -5 -14 0 -9 30 3 22 1 39 -5 43
-10 6 -125 9 -145 4 -5 -1 -15 -3 -23 -4 -8 0 -47 -67 -92 -156 -62 -125 -77
-149 -79 -125 -1 17 -3 65 -4 109 -2 43 -7 82 -12 87 -4 4 -20 9 -35 11 -35 5
-37 8 -40 45 -2 24 -8 33 -25 36 -13 2 -26 0 -29 -5 -3 -4 -9 -6 -14 -3 -20
12 -88 -16 -118 -50 -32 -34 -70 -116 -78 -165 -2 -14 -5 -32 -7 -40 -5 -19
-17 -81 -21 -100 -1 -8 -8 -39 -16 -68 -11 -41 -17 -51 -29 -46 -9 4 -27 9
-41 13 -17 4 -26 14 -28 31 -3 32 -14 42 -49 46 -52 6 -69 -8 -79 -65 -2 -7
-6 -17 -11 -22 -4 -4 -6 16 -5 45 4 63 -16 111 -51 120 -23 5 -47 42 -47 71 0
7 14 25 32 40 l32 27 13 -26 c8 -14 19 -27 26 -27 7 -1 23 -3 36 -4 15 -1 34
7 48 21 44 44 17 134 -39 134 -10 0 -19 5 -19 10 -6 47 -27 70 -64 70 -50 0
-93 -21 -149 -74 -11 -11 -30 -20 -43 -19 -13 1 -35 1 -49 2 -24 1 -25 3 -20
40 5 36 3 39 -22 43 -15 2 -40 1 -57 -2 -16 -4 -40 -3 -52 1 -26 10 -38 -3
-47 -51 -7 -40 -9 -49 -31 -150 -9 -41 -18 -84 -21 -95 -2 -11 -7 -33 -9 -49
-3 -16 -10 -37 -15 -46 -5 -10 -7 -19 -5 -22 3 -2 -9 -20 -25 -39 -26 -30 -29
-31 -21 -9 5 14 9 28 9 33 2 19 18 99 29 147 3 14 7 34 8 45 2 11 4 21 5 23 3
2 2 1 15 57 5 22 9 45 10 50 2 17 -16 34 -31 28 -8 -3 -25 -2 -38 1 -22 5 -24
9 -15 38 12 43 12 41 -11 35 -11 -3 -20 -2 -20 1 0 6 -27 7 -107 3 -15 -1 -24
-10 -31 -33 -10 -31 -37 -155 -46 -208 -2 -14 -9 -43 -14 -65 -6 -22 -14 -56
-17 -75 -6 -33 -30 -80 -41 -80 -3 0 -3 4 0 9 3 5 8 26 12 47 3 22 17 89 30
149 14 61 27 125 30 143 l5 32 -45 0 -45 0 5 39 c4 29 2 40 -10 44 -9 4 -16 2
-16 -4 0 -6 -5 -7 -11 -3 -18 11 -122 5 -130 -8 -4 -6 -11 -32 -15 -57 -4 -25
-8 -49 -10 -53 -1 -5 -2 -18 -3 -30 -2 -23 -2 -23 -16 -3 -31 44 -51 65 -61
65 -7 0 -20 12 -30 28 -25 38 -36 48 -64 58 -43 14 -93 10 -146 -12 l-51 -22
8 37 c5 20 9 38 9 41 0 4 -150 5 -171 1 -3 0 -6 -7 -6 -13 0 -11 -7 -46 -30
-148 -2 -8 -5 -28 -7 -45 -2 -16 -6 -37 -9 -45 -5 -13 -23 -89 -31 -131 -12
-61 -52 -147 -62 -136 -3 2 0 26 6 53 17 86 22 109 24 124 1 9 5 21 10 28 4 6
5 12 2 12 -2 0 0 15 5 33 10 31 13 45 24 115 6 35 4 36 -62 32 -32 -1 -32 -1
-21 30 7 20 7 35 1 41 -12 12 -89 17 -105 8 -7 -4 -20 -3 -30 2 -15 8 -20 5
-30 -16 -10 -21 -14 -24 -23 -13 -38 49 -157 42 -226 -13 -49 -39 -91 -93
-117 -149 -31 -69 -36 -86 -48 -180 -7 -56 -31 -113 -45 -104 -5 3 -4 16 1 29
5 14 8 25 5 25 -2 0 2 18 10 41 17 48 28 118 28 175 -1 42 -26 104 -43 104
-12 0 -60 45 -60 56 0 13 -56 45 -64 37 -3 -3 -6 -2 -6 4 0 17 -115 3 -130
-16 -3 -3 -15 -14 -27 -24 -21 -19 -22 -19 -17 12 6 34 14 32 -101 33 -31 0
-58 -1 -60 -4 -4 -3 -13 -41 -40 -169 -2 -9 -12 -59 -24 -110 -11 -52 -22
-105 -25 -119 -2 -14 -10 -47 -16 -75 -6 -27 -13 -67 -16 -87 l-6 -38 39 -1
c21 -1 41 -1 45 0 9 1 6 -29 -5 -46 -9 -15 37 -48 53 -38 6 3 34 6 64 6 l53 0
32 152 c46 214 60 268 77 295 25 37 27 19 9 -55 -18 -68 -19 -76 -30 -168 -7
-57 16 -112 54 -131 12 -6 32 -26 44 -44 28 -40 71 -58 130 -55 48 2 82 19
130 64 l28 26 21 -28 c61 -84 177 -84 268 0 32 29 36 29 54 -6 21 -39 54 -57
104 -56 42 0 43 0 38 -30 -14 -83 -17 -101 -22 -115 -3 -8 -8 -28 -11 -43 -4
-26 -3 -27 24 -21 69 18 74 13 58 -59 -5 -24 -3 -28 12 -23 10 3 41 10 68 17
72 16 79 17 87 18 4 1 14 34 23 74 17 79 18 81 29 142 15 80 15 80 44 53 14
-12 21 -16 17 -8 -7 12 -6 13 6 3 21 -17 122 -7 167 16 39 20 102 78 102 94 0
4 6 15 14 22 12 12 16 11 31 -11 9 -14 27 -30 39 -36 13 -5 29 -21 34 -34 36
-78 169 -78 247 0 14 14 29 26 33 26 4 0 17 -16 30 -36 27 -42 52 -53 110 -49
43 4 120 37 135 59 4 6 6 -5 5 -23 -3 -34 -2 -35 35 -34 21 0 40 3 43 6 3 3
18 2 33 -3 30 -8 53 0 57 22 20 105 48 226 56 236 19 23 26 12 23 -40 -3 -64
15 -102 55 -123 17 -9 30 -19 30 -24 0 -13 43 -57 65 -66 11 -5 42 -9 69 -10
41 -1 58 4 98 31 l48 32 17 -22 c36 -45 124 -56 176 -22 15 10 27 22 27 26 0
5 6 15 13 22 12 12 42 104 54 167 3 14 6 33 8 41 2 8 4 19 4 24 1 5 3 7 6 4 4
-4 13 -95 19 -193 1 -16 9 -21 39 -23 32 -3 37 -6 38 -30 1 -15 1 -33 0 -39
-2 -11 38 -19 70 -15 4 1 23 2 43 4 35 2 38 6 72 75 36 76 48 87 59 53 4 -11
20 -27 36 -35 16 -9 35 -28 43 -43 25 -48 109 -72 174 -51 20 6 55 30 79 52
23 22 43 35 43 30 0 -19 45 -62 80 -77 40 -16 105 -14 141 4 13 7 40 28 60 47
l36 34 23 -34 c39 -56 100 -73 200 -54 24 5 74 34 124 72 l48 36 33 -25 c19
-14 36 -34 39 -44 4 -10 21 -25 39 -34 65 -30 156 -7 219 55 27 27 31 29 40
14 18 -33 61 -65 100 -75 50 -13 136 -7 182 12 l36 15 -5 -30 c-3 -16 -12 -62
-21 -102 -28 -129 -28 -120 -2 -113 74 21 79 20 74 -8 -4 -14 -8 -38 -11 -52
-5 -21 -3 -25 12 -20 37 10 99 25 127 30 34 6 35 7 41 35 2 13 6 30 9 39 3 9
7 30 10 45 3 15 12 61 21 102 l17 73 31 -18 c42 -24 127 -20 190 10 26 12 47
25 47 29 0 3 14 20 30 38 17 18 30 36 30 41 0 5 6 15 13 21 11 8 17 5 27 -14
7 -14 21 -27 31 -30 9 -3 30 -22 45 -42 60 -79 180 -92 302 -33 34 17 62 35
62 41 0 5 11 9 25 9 28 0 29 -2 16 -48 l-10 -32 52 -1 c29 -1 57 0 62 1 6 2
22 2 36 1 22 -1 28 4 32 26 3 16 8 39 11 53 3 14 8 36 11 50 5 25 11 56 20 99
4 22 20 40 35 41 3 0 4 -27 3 -60 -1 -51 2 -64 23 -89 14 -17 34 -33 45 -36
11 -4 18 -9 15 -12 -8 -9 45 -62 73 -71 32 -11 96 -8 133 7 15 5 43 27 62 47
l34 36 17 -30 c43 -72 154 -90 233 -37 22 15 43 33 46 41 9 23 33 16 45 -14
29 -71 134 -79 226 -16 37 25 37 25 52 5 29 -43 97 -59 157 -38 38 13 60 38
87 100 21 46 22 47 33 25 6 -12 22 -28 35 -34 12 -7 31 -26 42 -43 34 -56 129
-74 182 -35 14 11 32 36 40 57 l15 37 -32 0 c-58 0 -69 36 -42 138 8 28 12 52
10 52 -2 0 0 10 5 23 5 13 12 40 15 60 3 20 11 58 17 84 6 27 13 60 15 75 2
14 5 32 6 40 2 9 -11 15 -42 18 -38 4 -53 16 -41 33 9 10 9 47 1 48 -41 3 -91
1 -96 -4 -3 -3 -16 -2 -29 3 -13 5 -25 6 -28 4 -3 -3 -36 -7 -73 -9 -77 -5
-84 -6 -136 -24 -21 -7 -38 -17 -38 -22 0 -5 -5 -9 -11 -9 -15 0 -51 -47 -66
-84 -26 -70 -1 -160 51 -184 39 -17 48 -52 29 -102 -12 -30 -20 -39 -32 -34
-9 3 -23 7 -31 8 -8 2 -14 6 -12 10 1 3 -5 20 -13 36 -30 59 -124 31 -125 -37
0 -12 -4 -24 -9 -27 -5 -4 -5 10 -1 32 5 20 11 48 14 62 2 14 18 87 34 163 20
92 26 137 18 138 -6 1 -27 0 -47 -1 l-37 -1 5 39 c4 35 2 40 -20 44 -13 3 -34
1 -45 -3 -12 -5 -22 -5 -22 0 0 14 -65 -1 -78 -18 -12 -15 -14 -14 -28 3 -8
11 -14 16 -14 12 0 -5 -6 -4 -12 1 -16 11 -82 10 -123 -2 -39 -11 -105 -56
-129 -89 -10 -14 -24 -33 -30 -41 -10 -14 -12 -13 -13 5 -3 31 -32 60 -61 60
-17 0 -22 4 -19 14 11 27 -31 66 -69 66 -42 0 -64 -11 -121 -57 -37 -30 -49
-34 -90 -31 l-48 3 3 43 c4 41 3 43 -16 33 -13 -7 -23 -7 -27 -2 -3 6 -17 6
-35 1 -17 -5 -30 -5 -30 -1 0 4 -13 6 -29 3 -30 -4 -30 -6 -47 -92 -7 -36 -21
-46 -29 -21 -3 12 -16 23 -29 27 -12 3 -30 21 -40 39 -24 43 -69 59 -147 52
-91 -8 -191 -79 -220 -155 l-10 -25 -25 34 c-13 19 -36 40 -49 47 -14 7 -25
17 -25 22 0 16 -44 57 -70 65 -44 14 -94 12 -138 -7 -58 -24 -63 -23 -51 9 5
14 8 31 6 38 -6 14 -152 14 -166 0 -5 -6 -12 -30 -16 -54 -3 -23 -10 -53 -14
-65 -5 -11 -6 -27 -4 -34 8 -20 -83 50 -93 73 -25 55 -144 71 -229 31 -49 -23
-118 -86 -127 -116 -3 -8 -8 6 -12 32 -7 48 -41 88 -72 88 -8 0 -14 8 -14 18
0 35 -62 69 -100 55z m454 -119 c19 -7 11 -24 -12 -24 -9 0 -30 -7 -47 -15
-30 -15 -30 -15 5 15 19 17 35 30 36 30 1 0 9 -3 18 -6z m1030 -3 c3 -5 -6
-14 -22 -19 -68 -25 -68 -25 -39 2 29 27 52 33 61 17z m1764 -16 c2 -2 -24 -9
-57 -16 -34 -6 -64 -16 -67 -20 -3 -5 -10 -9 -16 -9 -21 0 26 40 56 49 28 7
75 5 84 -4z m-7273 -5 c-28 -12 -37 -12 -30 0 3 6 16 10 28 9 21 0 21 -1 2 -9z
m3390 0 c-28 -12 -37 -12 -30 0 3 6 16 10 28 9 21 0 21 -1 2 -9z m3165 6 c0
-3 -4 -8 -10 -11 -5 -3 -10 -1 -10 4 0 6 5 11 10 11 6 0 10 -2 10 -4z m-5896
-25 c3 -5 -1 -11 -9 -14 -9 -4 -12 -1 -8 9 6 16 10 17 17 5z m1260 -15 c8 -32
-56 -102 -96 -104 -32 -2 -35 7 -10 30 9 10 33 35 52 57 19 23 38 41 41 41 4
0 10 -11 13 -24z m3046 15 c0 -6 -4 -13 -10 -16 -5 -3 -10 1 -10 9 0 9 5 16
10 16 6 0 10 -4 10 -9z m1107 2 c-4 -3 -2 -12 4 -20 9 -10 3 -23 -27 -56 -31
-34 -46 -44 -72 -44 l-33 -1 37 47 c40 50 74 80 88 81 5 0 6 -3 3 -7z m-3642
-50 c0 -21 -3 -42 -6 -48 -8 -13 -27 -73 -33 -105 -3 -14 -8 -36 -11 -50 -3
-14 -7 -36 -10 -50 -12 -60 -15 -76 -30 -124 -8 -28 -21 -58 -28 -66 -20 -25
-61 -39 -81 -28 -17 9 -16 12 8 28 15 9 33 26 41 37 16 23 52 125 60 172 33
191 91 341 90 234z m1715 -6 c0 -33 -101 -189 -114 -176 -10 10 -13 69 -5 75
5 3 27 32 49 64 27 40 45 57 55 54 8 -4 15 -11 15 -17z m-4105 -54 c-5 -21 -9
-42 -10 -48 -2 -5 -8 -37 -15 -70 -17 -84 -37 -127 -67 -149 l-26 -19 6 59 c8
66 11 80 21 109 5 11 13 34 19 50 15 43 67 118 76 109 2 -1 0 -20 -4 -41z
m640 10 c-12 -119 -29 -177 -69 -241 -48 -77 -55 -57 -24 78 13 61 17 80 23
113 6 30 42 77 61 77 7 0 10 -11 9 -27z m2755 2 c-5 -14 -8 -25 -5 -25 2 0 -1
-15 -6 -32 -5 -18 -12 -48 -15 -66 -15 -90 -51 -162 -80 -162 -27 0 6 163 47
238 37 66 79 100 59 47z m1544 -17 c-6 -77 -36 -182 -66 -225 -52 -76 -57 -65
-27 64 6 27 12 59 14 73 11 72 42 130 70 130 8 0 11 -14 9 -42z m625 15 c-2
-16 -7 -33 -12 -40 -11 -15 20 -32 49 -27 21 3 21 3 7 -59 -11 -51 -21 -69
-56 -102 -53 -50 -92 -72 -137 -77 l-35 -3 0 44 c-1 56 26 161 57 226 22 47
26 50 60 50 20 0 40 3 44 8 15 15 25 6 23 -20z m619 -27 c35 4 37 -1 22 -42
-10 -26 -16 -54 -24 -126 -6 -45 -24 -81 -37 -73 -5 4 -7 20 -4 36 9 49 -13
106 -46 120 -22 9 -59 56 -59 75 0 2 13 17 29 33 l30 31 29 -29 c22 -22 35
-28 60 -25z m378 37 c-5 -16 -44 -189 -50 -221 -1 -8 -15 -30 -30 -49 -30 -37
-48 -32 -41 11 2 12 6 38 9 59 4 21 11 48 18 60 6 12 10 22 8 22 -9 0 16 55
42 93 29 43 54 56 44 25z m640 -5 c-4 -13 -10 -40 -13 -60 -5 -36 -25 -54 -44
-42 -10 6 -6 54 7 76 26 46 61 64 50 26z m-4430 -5 c-3 -10 -7 -29 -10 -43 -2
-14 -7 -38 -12 -55 -10 -41 -102 -225 -112 -225 -22 0 0 69 63 198 67 135 83
164 71 125z m1754 -50 c-11 -26 -33 -61 -48 -76 -31 -33 -86 -62 -101 -53 -16
10 -1 44 22 50 26 6 109 82 126 114 22 42 23 15 1 -35z m-415 -64 c-4 -12 -8
-41 -10 -65 -2 -48 -24 -87 -56 -104 -26 -14 -28 -13 -34 38 -4 36 -1 45 25
72 16 17 37 42 46 55 20 31 38 33 29 4z m469 -46 c-14 -58 -116 -138 -184
-145 -33 -3 -35 -1 -38 30 -2 17 0 32 5 33 56 5 138 40 179 75 22 18 40 33 42
34 1 0 -1 -12 -4 -27z m2512 -108 c-8 -25 -12 -45 -10 -45 7 0 -27 -63 -44
-82 -15 -18 -62 -25 -62 -10 0 5 10 14 23 21 23 12 62 66 62 86 1 17 29 75 37
75 4 0 1 -20 -6 -45z m-3304 -25 c3 -21 -5 -29 -51 -52 -30 -16 -63 -28 -74
-28 -17 0 -15 3 9 22 16 12 45 38 64 58 38 39 46 39 52 0z m1783 -11 c-4 -17
-8 -38 -9 -46 -3 -21 -24 -31 -74 -37 -46 -5 -55 5 -19 21 12 6 40 29 62 50
50 50 48 49 40 12z m-1025 -13 c-5 -15 -8 -32 -5 -36 8 -13 -24 -27 -72 -33
-50 -5 -55 6 -14 28 16 8 44 28 62 45 38 34 44 33 29 -4z m-4574 -48 c-13 -9
-56 -11 -56 -3 0 3 10 19 22 36 l22 29 11 -27 c9 -20 9 -30 1 -35z m1176 15
c7 -9 3 -14 -16 -19 -41 -10 -49 4 -24 39 20 28 23 29 26 12 2 -11 9 -25 14
-32z m2229 1 c10 -12 -17 -24 -53 -24 -25 0 -22 10 9 45 25 27 28 28 32 10 2
-11 7 -25 12 -31z m742 -17 c-7 -5 -24 -7 -38 -5 l-24 3 27 31 27 32 11 -27
c9 -20 8 -28 -3 -34z m-4473 -1 c-10 -5 -27 -6 -36 -2 -15 6 -15 9 7 32 l23
25 12 -23 c11 -20 10 -24 -6 -32z m3398 34 c17 -27 8 -40 -29 -40 -34 0 -35 3
-11 35 21 30 24 30 40 5z m3169 -25 c-4 -12 -33 -19 -53 -11 -12 4 -10 10 8
31 21 24 23 25 35 8 7 -9 12 -22 10 -28z m310 38 c-4 -3 -2 -12 4 -19 6 -7 8
-18 4 -24 -7 -11 -48 -14 -58 -3 -8 8 32 53 46 53 6 0 7 -3 4 -7z m-6287 -38
c0 -8 -4 -15 -10 -15 -5 0 -7 7 -4 15 4 8 8 15 10 15 2 0 4 -7 4 -15z m1786
-13 c-22 -5 -30 3 -21 18 5 8 11 7 22 -2 15 -12 14 -13 -1 -16z m4788 12 c8
-22 8 -24 -8 -24 -18 0 -29 16 -21 30 9 15 22 12 29 -6z m-5404 -4 c0 -5 -2
-10 -4 -10 -3 0 -8 5 -11 10 -3 6 -1 10 4 10 6 0 11 -4 11 -10z"/>
<path d="M2630 6430 c-7 -5 -19 -6 -27 -3 -7 3 -21 -1 -30 -8 -11 -9 -14 -10
-10 -2 6 9 -3 9 -37 -1 -25 -8 -47 -11 -50 -8 -4 3 -6 0 -6 -6 0 -13 98 -10
120 3 8 5 11 4 6 -3 -7 -11 24 -9 44 3 6 3 10 0 10 -7 0 -9 3 -9 10 2 8 12 10
12 10 1 0 -11 3 -11 17 0 10 8 14 9 10 2 -9 -15 35 -14 45 2 5 6 8 2 9 -10 l0
-20 9 20 c7 16 9 17 9 3 1 -11 8 -16 21 -13 11 2 22 -1 25 -6 4 -5 10 -7 15
-4 5 3 19 1 31 -6 17 -9 20 -8 14 2 -6 8 -4 10 6 3 21 -13 62 -13 78 0 11 8
13 8 7 -1 -5 -10 10 -13 66 -12 40 1 63 4 51 6 -13 2 -23 8 -23 13 0 5 -7 7
-15 4 -8 -4 -15 -1 -15 6 0 6 -4 8 -10 5 -5 -3 -10 -1 -10 6 0 7 -3 10 -6 6
-3 -3 -17 -2 -31 4 -16 6 -22 5 -18 -1 3 -6 -1 -7 -9 -4 -9 3 -16 10 -16 15 0
5 -10 9 -22 9 -19 0 -20 -2 -8 -10 8 -5 10 -10 5 -10 -6 0 -16 5 -22 11 -14
14 -181 20 -189 7 -3 -4 -11 -5 -17 -1 -18 11 -33 12 -47 3z"/>
<path d="M2440 6400 c-8 -5 -11 -12 -7 -16 4 -4 13 -2 19 4 15 15 7 24 -12 12z"/>
<path d="M2386 6381 c9 -9 34 -9 34 -1 0 5 -9 8 -20 7 -10 -1 -17 -3 -14 -6z"/>
</g>
</svg>
