<svg width="19" height="12" viewBox="0 0 19 12" fill="none" xmlns="http://www.w3.org/2000/svg">
<path fill-rule="evenodd" clip-rule="evenodd" d="M2.71153 0.885742H0.692316C0.115392 0.885742 0 1.15052 0 1.44241C0 1.96382 0.684564 4.54971 3.18743 7.96975C4.85601 10.3054 7.20688 11.5715 9.34612 11.5715C10.6296 11.5715 10.7884 11.2903 10.7884 10.8059V9.04063C10.7884 8.47822 10.91 8.36597 11.3164 8.36597C11.6159 8.36597 12.1293 8.51197 13.3273 9.63807C14.6964 10.9727 14.9221 11.5715 15.6922 11.5715H17.7114C18.2884 11.5715 18.5768 11.2903 18.4104 10.7353C18.2283 10.1823 17.5746 9.37976 16.7073 8.42856C16.2366 7.88635 15.5307 7.30246 15.3168 7.01046C15.0173 6.63511 15.1028 6.46824 15.3168 6.13462C15.3168 6.13462 17.7769 2.75625 18.0336 1.60933C18.1619 1.1922 18.0336 0.885742 17.423 0.885742H15.4037C14.8903 0.885742 14.6536 1.15052 14.5252 1.44241C14.5252 1.44241 13.4985 3.88235 12.0438 5.46727C11.5731 5.92602 11.3592 6.07203 11.1025 6.07203C10.9742 6.07203 10.7884 5.92603 10.7884 5.509V1.60933C10.7884 1.10879 10.6394 0.885742 10.2115 0.885742H7.0384C6.71759 0.885742 6.5246 1.11802 6.5246 1.3382C6.5246 1.81264 7.25192 1.92209 7.3269 3.25673V6.15549C7.3269 6.79101 7.20913 6.90624 6.95246 6.90624C6.26793 6.90624 4.60281 4.45539 3.61523 1.65101C3.42172 1.10592 3.22758 0.885742 2.71153 0.885742Z" fill="#3F3F3F"/>
</svg>
