<svg width="19" height="19" viewBox="0 0 19 19" fill="none" xmlns="http://www.w3.org/2000/svg">
<path d="M8.78103 0.010796C3.90651 0.242892 0.05984 4.30242 0.0746275 9.18245C0.0791299 10.6688 0.437957 12.0717 1.07095 13.3113L0.0990819 18.0288C0.0465093 18.284 0.276663 18.5074 0.530169 18.4474L5.15281 17.3522C6.34044 17.9438 7.6744 18.2855 9.08618 18.307C14.0684 18.3831 18.2227 14.4271 18.378 9.44677C18.5444 4.10815 14.1383 -0.244342 8.78103 0.010796ZM14.2968 14.2224C12.943 15.5762 11.1431 16.3217 9.22858 16.3217C8.10756 16.3217 7.0343 16.0702 6.03851 15.5742L5.39475 15.2535L2.56059 15.925L3.15717 13.029L2.84001 12.4079C2.32307 11.3955 2.06095 10.3008 2.06095 9.15411C2.06095 7.23955 2.80651 5.43964 4.16028 4.08581C5.50197 2.74413 7.33128 1.98644 9.22871 1.98644C11.1432 1.98649 12.9431 2.73204 14.2969 4.08577C15.6506 5.43955 16.3962 7.23947 16.3962 9.15397C16.3962 11.0514 15.6385 12.8808 14.2968 14.2224Z" fill="#3F3F3F"/>
<path d="M13.6712 11.1392L11.898 10.6301C11.6649 10.5631 11.4139 10.6293 11.244 10.8023L10.8104 11.2441C10.6276 11.4304 10.3502 11.4903 10.1082 11.3923C9.26942 11.0529 7.50499 9.4841 7.05439 8.6994C6.92439 8.47304 6.94589 8.19005 7.1055 7.98351L7.48406 7.49376C7.63238 7.30187 7.66368 7.04418 7.56559 6.82236L6.8196 5.13514C6.64091 4.73102 6.1245 4.61338 5.78713 4.89872C5.29226 5.31727 4.70508 5.9533 4.63371 6.65794C4.50786 7.90026 5.04065 9.46632 7.0554 11.3467C9.38299 13.5192 11.2469 13.8062 12.4605 13.5122C13.1488 13.3455 13.6989 12.6771 14.0461 12.1298C14.2828 11.7567 14.0959 11.2612 13.6712 11.1392Z" fill="#3F3F3F"/>
</svg>
