<svg width="21" height="22" viewBox="0 0 21 22" fill="none" xmlns="http://www.w3.org/2000/svg">
<path d="M15.3387 12.1282L17.3213 14.1108C17.6961 14.4856 17.6961 15.0933 17.3213 15.4682C15.2948 17.4947 12.0864 17.7227 9.79367 16.0031L9.66001 15.9029C7.93054 14.6058 6.3942 13.0695 5.09709 11.34L4.99685 11.2063C3.27727 8.91355 3.50528 5.70525 5.53182 3.6787C5.90666 3.30387 6.51439 3.30387 6.88923 3.6787L8.87184 5.66131C9.26236 6.05184 9.26236 6.685 8.87184 7.07553L7.47409 8.47328C7.2224 8.72497 7.16 9.10948 7.31919 9.42784C8.2394 11.2683 9.73172 12.7606 11.5722 13.6808C11.8905 13.84 12.275 13.7776 12.5267 13.5259L13.9245 12.1282C14.315 11.7376 14.9482 11.7376 15.3387 12.1282Z" fill="#3F3F3F"/>
</svg>
