<svg width="19" height="14" viewBox="0 0 19 14" fill="none" xmlns="http://www.w3.org/2000/svg">
<path d="M17.6726 2.10679C17.1719 1.21623 16.6286 1.05242 15.5223 0.990131C14.4172 0.915149 11.6383 0.884003 9.23076 0.884003C6.81864 0.884003 4.03853 0.915149 2.93456 0.988978C1.8306 1.05242 1.28611 1.21508 0.780846 2.10679C0.265199 2.99619 -0.00012207 4.52814 -0.00012207 7.22519C-0.00012207 7.22749 -0.00012207 7.22865 -0.00012207 7.22865C-0.00012207 7.23095 -0.00012207 7.23211 -0.00012207 7.23211V7.23441C-0.00012207 9.91993 0.265199 11.4634 0.780846 12.3436C1.28611 13.2341 1.82944 13.3956 2.93341 13.4706C4.03853 13.5352 6.81864 13.5733 9.23076 13.5733C11.6383 13.5733 14.4172 13.5352 15.5235 13.4718C16.6298 13.3968 17.1731 13.2353 17.6737 12.3447C18.194 11.4646 18.457 9.92108 18.457 7.23557C18.457 7.23557 18.457 7.23211 18.457 7.2298C18.457 7.2298 18.457 7.22749 18.457 7.22634C18.457 4.52814 18.194 2.99619 17.6726 2.10679ZM6.92131 10.6894V3.76793L12.6892 7.22865L6.92131 10.6894Z" fill="#3F3F3F"/>
</svg>
