<svg width="130.000000" height="23.349365" viewBox="0 0 130 23.3494" fill="none" xmlns="http://www.w3.org/2000/svg" xmlns:xlink="http://www.w3.org/1999/xlink">
	<desc>
			Created with Pixso.
	</desc>
	<defs/>
	<rect id="Rectangle 204" y="10.682617" width="44.000000" height="1.000000" fill="#F86C9B" fill-opacity="1.000000"/>
	<rect id="Rectangle 205" x="86.000000" y="10.682617" width="44.000000" height="1.000000" fill="#F86C9B" fill-opacity="1.000000"/>
	<path id="Vector" d="M62 19.01C62 20.85 60.5 22.34 58.66 22.34C56.82 22.34 55.33 20.85 55.33 19.01C55.33 17.17 56.82 15.68 58.66 15.68C60.5 15.68 62 17.17 62 19.01Z" stroke="#F86C9B" stroke-opacity="1.000000" stroke-width="2.000000" stroke-linejoin="round"/>
	<path id="Vector" d="M76.66 19.01C76.66 20.85 75.17 22.34 73.33 22.34C71.49 22.34 70 20.85 70 19.01C70 17.17 71.49 15.68 73.33 15.68C75.17 15.68 76.66 17.17 76.66 19.01Z" stroke="#F86C9B" stroke-opacity="1.000000" stroke-width="2.000000" stroke-linejoin="round"/>
	<path id="Vector" d="M69.99 19.68L58.35 1.01" stroke="#F86C9B" stroke-opacity="1.000000" stroke-width="2.000000" stroke-linejoin="round" stroke-linecap="round"/>
	<path id="Vector" d="M66 11.68L61.29 19.18C60.9 19.8 60.66 20.42 61.29 20.81C61.91 21.2 61.61 22.3 62 21.68L67 13.68L66 11.68ZM68 8.68L69.14 10.75L74.77 1.72C75.16 1.09 75.12 0.57 74.5 0.18C73.87 -0.21 73.38 0.05 73 0.68L68 8.68Z" fill="#F86C9B" fill-opacity="1.000000" fill-rule="evenodd"/>
</svg>
