<svg width="130.000000" height="32.000000" viewBox="0 0 130 32" fill="none" xmlns="http://www.w3.org/2000/svg" xmlns:xlink="http://www.w3.org/1999/xlink">
	<desc>
			Created with Pixso.
	</desc>
	<defs>
		<clipPath id="clip69_305">
			<rect id="scissors-svgrepo-com 1" width="31.999998" height="32.000000" transform="translate(50.000000 32.000000) rotate(-90.000000)" fill="white" fill-opacity="0"/>
		</clipPath>
	</defs>
	<rect id="Rectangle 204" y="15.000000" width="44.000000" height="1.000000" fill="#FFFFFF" fill-opacity="1.000000"/>
	<rect id="Rectangle 205" x="86.000000" y="15.000000" width="44.000000" height="1.000000" fill="#FFFFFF" fill-opacity="1.000000"/>
	<rect id="scissors-svgrepo-com 1" width="31.999998" height="32.000000" transform="translate(50.000000 32.000000) rotate(-90.000000)" fill="#FFFFFF" fill-opacity="0"/>
	<g clip-path="url(#clip69_305)">
		<path id="Vector" d="M62 23.33C62 25.17 60.5 26.66 58.66 26.66C56.82 26.66 55.33 25.17 55.33 23.33C55.33 21.49 56.82 20 58.66 20C60.5 20 62 21.49 62 23.33Z" stroke="#FFFFFF" stroke-opacity="1.000000" stroke-width="2.000000" stroke-linejoin="round"/>
		<path id="Vector" d="M76.66 23.33C76.66 25.17 75.17 26.66 73.33 26.66C71.49 26.66 70 25.17 70 23.33C70 21.49 71.49 20 73.33 20C75.17 20 76.66 21.49 76.66 23.33Z" stroke="#FFFFFF" stroke-opacity="1.000000" stroke-width="2.000000" stroke-linejoin="round"/>
		<path id="Vector" d="M69.99 24L58.35 5.33" stroke="#FFFFFF" stroke-opacity="1.000000" stroke-width="2.000000" stroke-linejoin="round" stroke-linecap="round"/>
		<path id="Vector" d="M66 15.99L61.29 23.5C60.9 24.12 60.66 24.74 61.29 25.13C61.91 25.52 61.61 26.62 62 25.99L67 17.99L66 15.99ZM68 13L69.14 15.06L74.77 6.03C75.16 5.41 75.12 4.88 74.5 4.5C73.87 4.11 73.38 4.37 73 5L68 13Z" fill="#FFFFFF" fill-opacity="1.000000" fill-rule="evenodd"/>
	</g>
</svg>
